<?xml version="1.0" encoding="UTF-8" standalone="no"?>
<?xml-stylesheet href="svg.css" type="text/css"?>
<!DOCTYPE svg PUBLIC "-//W3C//DTD SVG 20010904//EN"
              "http://www.w3.org/TR/2001/REC-SVG-20010904/DTD/svg10.dtd">

<svg xmlns="http://www.w3.org/2000/svg"
     xmlns:xlink="http://www.w3.org/1999/xlink"
     width="5.71in" height="7.815in"
     viewBox="0 0 1142 1563">
  <image x="0" y="0" width="1142px" height="1563px"
         xlink:href="../ae.jpg">
    <title>My image</title>
  </image>
  <g id="wletters">
  <path id="w27"
        class="word"
        d="M 635.33,402.67
           C 635.33,402.67 612.67,361.33 612.67,361.33
             612.67,361.33 747.33,435.33 747.33,435.33
             747.33,435.33 699.33,360.00 699.33,360.00
             699.33,360.00 699.33,352.67 699.33,352.67
             699.33,352.67 737.33,314.00 762.00,267.33
             786.67,220.67 791.33,200.00 794.67,177.33
             798.00,154.67 790.00,149.33 790.67,149.33M 699.33,352.67
           C 699.33,352.67 688.67,352.67 688.67,352.67
             688.67,352.67 699.33,361.33 699.33,361.33" />
  <path id="w26"
        class="word"
        d="M 365.33,412.67
           C 365.33,412.67 411.33,336.00 411.33,336.67
             411.33,337.33 450.00,424.67 450.00,424.67
             450.00,424.67 487.33,368.00 487.33,368.00
             487.33,368.00 509.33,431.33 548.00,443.33
             584.00,452.67 651.33,346.67 654.00,293.33M 494.00,384.00
           C 494.00,384.00 478.00,385.33 478.00,384.67" />
  <path id="w25"
        class="word"
        d="M 371.33,488.00
           C 371.33,488.00 418.67,421.33 418.67,421.33
             418.67,421.33 456.00,518.67 456.00,518.67
             456.00,518.67 480.00,478.00 480.00,478.00
             480.00,478.00 522.67,536.00 574.00,536.00
             644.00,533.33 740.00,426.00 766.00,336.67M 472.67,489.33
           C 472.67,489.33 491.33,492.67 491.33,492.67" />
  <path id="w24"
        class="word"
        d="M 354.67,558.00
           C 354.67,558.00 307.33,518.67 307.33,518.67
             307.33,518.67 408.00,568.67 408.00,568.67
             408.00,568.67 368.67,525.33 368.67,525.33
             368.67,525.33 380.00,509.33 378.51,509.05
             476.67,461.33 496.00,540.67 492.00,591.33
             475.33,670.67 392.67,692.00 392.67,692.00M 376.67,536.00
           C 377.33,536.00 377.33,513.33 377.33,513.33" />
  <path id="w23"
        class="word"
        d="M 446.67,348.67
           C 446.67,348.67 361.33,368.00 361.33,368.00
             361.33,368.00 416.67,467.33 416.67,467.33
             416.67,467.33 348.67,434.00 348.67,434.00
             348.67,434.00 350.67,472.00 332.67,502.00
             308.67,543.33 288.67,548.00 288.67,548.00M 365.33,441.33
           C 365.33,441.33 350.00,448.67 350.00,448.67" />
  <path id="w22"
        class="word"
        d="M 437.33,193.33
           C 437.33,193.33 392.00,256.67 392.00,256.67
             392.00,256.67 475.33,247.33 475.33,247.33
             475.33,247.33 445.33,282.67 445.33,282.67
             445.33,282.67 455.33,286.00 454.00,314.67
             452.67,343.33 445.33,350.00 445.33,350.00M 454.00,272.00
           C 454.04,273.53 453.95,292.64 454.00,292.00" />
  <path id="w21"
        class="word"
        d="M 211.33,296.00
           C 211.33,296.00 253.33,328.00 253.33,328.00
             253.33,328.00 249.33,202.67 249.33,202.67
             249.33,202.67 288.67,232.00 288.67,232.00
             288.67,232.00 308.67,184.00 350.67,162.67
             415.33,102.00 462.00,132.67 462.00,132.67M 296.67,219.33
           C 296.67,219.33 297.33,235.33 297.33,235.33
             297.33,235.33 288.67,232.00 288.67,232.00" />
  <path id="w20"
        class="word"
        d="M 82.00,476.00
           C 82.00,476.00 131.33,441.33 131.33,442.00
             131.33,442.67 122.00,362.00 122.00,362.00
             122.00,362.00 179.33,394.00 179.33,394.00
             179.33,394.00 183.33,360.67 213.33,330.67
             243.33,300.67 276.67,289.33 276.67,289.33M 180.00,394.00
           C 180.00,394.00 193.33,396.67 192.67,396.67
             192.00,396.67 183.33,384.00 183.33,384.00" />
  <path id="w19"
        class="word"
        d="M 162.58,353.33
           C 162.58,353.33 167.00,339.75 150.17,311.33
             136.00,286.50 126.67,277.33 126.67,277.33
             126.67,277.33 147.33,228.00 147.33,228.00
             147.33,228.00 87.33,248.67 87.33,248.67
             87.33,248.67 110.00,190.00 110.00,190.00M 131.33,266.67
           C 131.33,266.67 118.00,271.00 118.00,271.00
             118.00,271.00 127.00,277.75 127.00,277.75" />
  <path id="w18"
        class="word"
        d="M 254.00,600.00
           C 254.00,600.00 214.00,612.67 188.00,571.33
             162.00,530.00 166.67,494.67 166.67,494.67
             166.67,494.67 168.00,487.33 168.00,487.33
             168.00,487.33 208.00,436.00 208.00,436.00
             208.00,436.00 96.00,412.00 96.00,412.00
             96.00,412.00 164.00,353.33 164.00,353.33M 166.67,494.00
           C 166.67,494.00 156.00,488.67 156.00,488.67
             156.00,488.67 168.00,488.00 168.00,488.00" />
  <path id="w17"
        class="word"
        d="M 178.50,670.50
           C 178.50,670.50 208.50,729.00 208.50,729.00
             208.50,729.00 225.00,579.00 225.00,579.00
             225.00,579.00 253.50,654.00 253.50,654.00M 354.00,559.50
           C 354.00,559.50 324.67,605.33 290.67,636.00
             262.67,656.00 242.75,653.25 242.75,653.25
             242.75,653.25 250.50,643.50 250.50,643.50" />
  <path id="w16"
        class="word"
        d="M 184.50,1311.00
           C 184.50,1311.00 222.00,1243.50 223.50,1071.00
             240.00,841.50 207.00,816.00 207.00,816.00
             207.00,816.00 202.50,829.50 202.50,829.50
             202.50,829.50 340.50,750.00 340.50,750.00
             340.50,750.00 264.50,618.50 264.50,618.50
             264.50,618.50 391.50,691.50 391.50,691.50" />
  <path id="w15"
        class="word"
        d="M 125.00,1257.00
           C 125.00,1257.00 195.00,1341.00 195.00,1341.00
             195.00,1341.00 261.00,1258.00 261.00,1258.00
             261.00,1258.00 247.00,1331.00 247.00,1331.00M 333.00,1376.00
           C 333.00,1376.00 288.00,1368.00 273.00,1356.00
             258.00,1344.00 240.00,1320.00 240.00,1320.00
             240.00,1320.00 251.00,1320.00 251.00,1320.00" />
  <path id="w14"
        class="word"
        d="M 154.00,1460.00
           C 154.00,1460.00 92.00,1478.00 92.00,1478.00
             92.00,1478.00 129.00,1414.00 129.00,1414.00
             129.00,1414.00 78.00,1396.00 78.00,1396.00
             78.00,1396.00 87.00,1390.00 87.00,1390.00M 137.00,1307.00
           C 137.00,1307.00 112.00,1324.00 103.00,1345.00
             87.00,1381.00 88.00,1401.00 88.00,1401.00" />
  <path id="w13"
        class="word"
        d="M 62.00,1163.00
           C 62.00,1163.00 82.00,1197.00 87.00,1232.00
             94.00,1270.00 70.00,1285.00 70.00,1285.00
             70.00,1285.00 176.00,1298.00 176.00,1298.00
             176.00,1298.00 137.00,1331.00 137.00,1331.00
             137.00,1331.00 172.00,1357.00 172.00,1357.00M 81.00,1274.00
           C 81.00,1274.00 87.00,1288.00 87.00,1288.00" />
  <path id="w12"
        class="word"
        d="M 191.00,1089.00
           C 191.00,1089.00 143.00,1063.00 143.00,1063.00
             143.00,1063.00 154.00,1176.00 154.00,1176.00
             154.00,1176.00 117.00,1126.00 117.00,1126.00
             117.00,1126.00 101.00,1149.00 90.00,1154.00
             79.00,1159.00 61.00,1163.00 62.00,1163.00M 126.00,1136.00
           C 126.00,1136.00 112.00,1136.00 111.00,1136.00" />
  <path id="w11"
        class="word"
        d="M 417.00,1168.00
           C 417.00,1168.00 340.00,1143.00 340.00,1143.00
             340.00,1143.00 399.00,1093.00 399.00,1093.00
             399.00,1093.00 320.00,1065.00 320.00,1065.00
             320.00,1065.00 337.00,1057.00 337.00,1057.00
             337.00,1057.00 337.00,1076.00 322.00,1085.00
             307.00,1094.00 280.00,1093.00 280.00,1093.00" />
  <path id="w10"
        class="word"
        d="M 430.00,1191.00
           C 430.00,1191.00 415.00,1260.00 415.00,1260.00
             415.00,1260.00 389.00,1140.00 389.00,1140.00
             389.00,1140.00 319.00,1186.00 319.00,1186.00M 212.00,1302.00
           C 212.00,1302.00 225.00,1234.00 268.00,1208.00
             311.00,1182.00 337.00,1187.00 337.00,1187.00
             337.00,1187.00 333.00,1176.00 333.00,1176.00" />
  <path id="w9"
        class="word"
        d="M 507.00,1219.00
           C 507.00,1219.00 457.00,1150.00 457.00,1150.00
             457.00,1150.00 431.00,1249.00 431.00,1249.00
             431.00,1249.00 385.00,1210.00 384.00,1210.00
             383.00,1210.00 387.00,1260.00 381.00,1280.00
             375.00,1300.00 360.00,1324.00 360.00,1324.00M 384.00,1225.00
           C 384.00,1225.00 395.00,1219.00 395.00,1219.00" />
  <path id="w8"
        class="word"
        d="M 598.00,908.00
           C 598.00,908.00 641.00,849.00 641.00,849.00
             641.00,849.00 680.00,1000.00 689.00,1033.00
             699.83,1098.69 757.02,1210.27 757.00,1210.00
             757.00,1210.00 831.00,1072.00 831.00,1072.00
             831.00,1072.00 837.00,1079.00 837.00,1079.00M 838.00,1041.00
           C 838.00,1041.00 847.00,1047.00 846.00,1057.00
             842.00,1075.00 829.00,1081.00 828.00,1081.00" />
  <path id="w7"
        class="word"
        d="M 873.00,730.50
           C 873.00,730.50 601.50,853.50 601.50,853.50
             601.50,853.50 775.50,898.50 775.50,898.50
             775.50,898.50 696.00,910.50 696.00,910.50
             696.00,910.50 705.00,928.67 727.50,936.17
             750.00,943.67 775.50,936.00 775.50,936.00M 714.00,908.00
           C 714.00,908.00 710.67,926.00 710.00,926.00" />
  <path id="w6"
        class="word"
        d="M 1045.00,852.00
           C 1045.00,852.00 864.00,783.00 864.00,783.00
             864.00,783.00 836.00,720.00 836.00,720.00
             836.00,720.00 818.00,928.00 818.00,928.00
             818.00,928.00 825.50,936.00 825.50,936.00M 782.00,1066.00
           C 782.00,1066.00 815.00,1034.00 822.00,1001.00
             832.00,953.50 820.50,914.00 820.50,914.00" />
  <path id="w5"
        class="word"
        d="M 1019.00,892.50
           C 1019.00,892.50 1006.50,932.50 1006.50,932.50
             1006.50,932.50 982.00,811.50 982.00,811.50
             982.00,811.50 953.50,918.00 953.50,918.00M 871.50,913.00
           C 871.50,913.00 885.00,939.00 915.50,935.50
             946.00,932.00 967.00,904.50 967.00,904.50
             967.00,904.50 958.50,903.00 958.50,903.00" />
  <path id="w4"
        class="word"
        d="M 990.00,1024.00
           C 990.00,1024.00 966.00,1030.00 966.00,1030.00
             966.00,1030.00 1036.00,910.00 1036.00,910.00
             1036.00,910.00 970.00,934.00 970.00,934.00M 932.00,964.00
           C 932.00,964.00 939.00,940.50 953.00,934.50
             967.00,928.50 981.00,939.00 981.00,939.00
             981.00,939.00 983.00,929.50 983.00,929.50" />
  <path id="w3"
        class="word"
        d="M 642.00,1262.00
           C 642.00,1262.00 706.00,1246.00 718.00,1224.00
             730.00,1202.00 720.00,1186.00 720.00,1186.00
             720.00,1186.00 996.00,1180.00 996.00,1180.00
             996.00,1180.00 944.00,1142.00 944.00,1142.00
             944.00,1142.00 986.00,982.00 986.00,982.00" />
  <path id="w2"
        class="word"
        d="M 538.00,1196.00
           C 538.00,1196.00 546.00,1222.00 570.00,1232.00
             594.00,1242.00 622.00,1230.00 622.00,1230.00
             622.00,1230.00 610.00,1220.00 612.00,1220.00M 688.00,1218.00
           C 688.00,1218.00 674.00,1284.00 674.00,1284.00
             674.00,1284.00 636.00,1162.00 636.00,1162.00
             636.00,1162.00 604.00,1236.00 604.00,1236.00" />
  <path id="w1"
        class="word"
        d="M 500.00,1342.00
           C 500.00,1342.00 520.00,1322.00 524.00,1298.00
             528.00,1274.00 514.00,1250.00 514.00,1250.00
             514.00,1250.00 568.00,1206.00 568.00,1206.00
             568.00,1206.00 484.00,1198.00 484.00,1198.00
             484.00,1198.00 538.00,1134.00 538.00,1134.00" />
</g>
</svg>
