<?xml version="1.0" encoding="UTF-8" standalone="no"?>
<?xml-stylesheet href="svg.css" type="text/css"?>
<!DOCTYPE svg PUBLIC "-//W3C//DTD SVG 20010904//EN"
              "http://www.w3.org/TR/2001/REC-SVG-20010904/DTD/svg10.dtd">

<svg xmlns="http://www.w3.org/2000/svg"
     xmlns:xlink="http://www.w3.org/1999/xlink"
     width="5.49in" height="2.765in"
     viewBox="0 0 1098 553">
  <image x="0" y="0" width="1098px" height="553px"
         xlink:href="../au.jpg">
    <title>My image</title>
  </image>
  <g id="wletters">
  <path id="w27"
        class="word"
        d="M 949.50,241.50
           C 949.50,241.50 996.00,190.50 996.00,190.50
             996.00,190.50 1005.00,363.00 1005.00,363.00
             1005.00,363.00 1045.50,316.50 1045.50,316.50" />
  <path id="w26"
        class="word"
        d="M 750.00,349.50
           C 750.00,349.50 870.00,304.50 870.00,304.50
             870.00,304.50 804.00,291.00 804.00,291.00
             804.00,291.00 949.50,240.00 949.50,240.00" />
  <path id="w25"
        class="word"
        d="M 759.00,325.50
           C 759.00,325.50 801.00,357.00 801.00,357.00
             801.00,357.00 774.00,240.00 774.00,240.00
             774.00,240.00 840.00,309.00 840.00,309.00" />
  <path id="w24"
        class="word"
        d="M 856.50,235.50
           C 856.50,235.50 880.50,246.00 882.00,246.00
             883.50,246.00 880.50,189.00 880.50,189.00
             880.50,189.00 909.00,208.50 909.00,208.50" />
  <path id="w23"
        class="word"
        d="M 720.00,309.00
           C 720.00,309.00 802.50,238.50 802.50,238.50
             802.50,238.50 864.00,286.50 864.00,286.50
             864.00,286.50 858.00,238.50 858.00,238.50" />
  <path id="w22"
        class="word"
        d="M 711.00,210.00
           C 711.00,211.50 754.50,226.50 754.50,226.50
             754.50,226.50 673.50,282.00 673.50,282.00
             673.50,282.00 720.00,309.00 720.00,309.00" />
  <path id="w21"
        class="word"
        d="M 805.50,165.00
           C 805.50,163.50 718.50,232.50 718.50,232.50
             718.50,232.50 738.00,181.50 738.00,181.50
             738.00,181.50 639.00,202.50 639.00,202.50" />
  <path id="w20"
        class="word"
        d="M 952.50,205.50
           C 952.50,205.50 915.00,160.50 915.00,160.50
             915.00,160.50 828.00,201.00 828.00,201.00
             828.00,201.00 805.50,165.00 805.50,165.00" />
  <path id="w19"
        class="word"
        d="M 1005.00,124.50
           C 1005.00,124.50 952.50,162.00 952.50,160.50
             952.50,159.00 1075.50,198.00 1075.50,198.00
             1075.50,198.00 951.00,204.00 951.00,204.00" />
  <path id="w18"
        class="word"
        d="M 792.00,114.00
           C 792.00,114.00 828.00,46.50 828.00,46.50
             828.00,46.50 993.00,153.00 993.00,153.00
             993.00,153.00 978.00,88.50 978.00,88.50" />
  <path id="w17"
        class="word"
        d="M 576.00,154.50
           C 576.00,154.50 577.50,100.50 577.50,100.50
             577.50,100.50 630.00,159.00 630.00,159.00
             630.00,159.00 793.50,114.00 793.50,114.00" />
  <path id="w16"
        class="word"
        d="M 400.50,243.00
           C 400.50,243.00 420.00,171.00 420.00,171.00
             420.00,171.00 474.00,192.00 474.00,192.00
             474.00,192.00 619.50,102.00 619.50,102.00" />
  <path id="w15"
        class="word"
        d="M 955.50,370.50
           C 955.50,370.50 957.00,295.50 957.00,295.50
             957.00,295.50 1062.00,379.50 1062.00,379.50
             1062.00,379.50 1093.50,358.50 1093.50,358.50" />
  <path id="w14"
        class="word"
        d="M 712.50,357.00
           C 712.50,357.00 777.00,421.50 777.00,421.50
             777.00,421.50 904.50,324.00 903.00,324.00
             901.50,324.00 954.00,372.00 954.00,372.00" />
  <path id="w13"
        class="word"
        d="M 460.50,313.50
           C 460.50,313.50 529.50,288.00 529.50,288.00
             529.50,288.00 655.50,403.50 655.50,403.50
             655.50,403.50 711.00,357.00 711.00,357.00" />
  <path id="w12"
        class="word"
        d="M 430.50,351.00
           C 430.50,351.00 408.00,291.00 408.00,291.00
             408.00,291.00 498.00,309.00 498.00,309.00
             498.00,309.00 499.50,243.00 499.50,243.00" />
  <path id="w11"
        class="word"
        d="M 478.50,412.50
           C 478.50,412.50 412.50,433.50 412.50,433.50
             412.50,433.50 463.50,328.50 463.50,328.50
             463.50,328.50 432.00,351.00 432.00,351.00" />
  <path id="w10"
        class="word"
        d="M 336.00,420.00
           C 336.00,420.00 360.00,483.00 360.00,483.00
             360.00,483.00 405.00,375.00 405.00,375.00
             405.00,375.00 450.00,441.00 450.00,441.00" />
  <path id="w9"
        class="word"
        d="M 265.50,423.00
           C 265.50,423.00 280.50,363.00 280.50,363.00
             280.50,363.00 310.50,484.50 310.50,484.50
             310.50,484.50 334.50,421.50 334.50,421.50" />
  <path id="w8"
        class="word"
        d="M 228.00,445.50
           C 228.00,445.50 280.50,393.00 280.50,393.00
             280.50,393.00 228.00,331.50 228.00,331.50
             228.00,331.50 289.50,322.50 289.50,322.50" />
  <path id="w7"
        class="word"
        d="M 166.50,324.00
           C 166.50,324.00 222.00,324.00 222.00,324.00
             222.00,324.00 165.00,399.00 165.00,399.00
             165.00,399.00 228.00,442.50 228.00,444.00" />
  <path id="w6"
        class="word"
        d="M 361.50,204.00
           C 361.50,204.00 345.00,136.50 345.00,136.50
             345.00,136.50 318.00,229.50 318.00,229.50
             318.00,229.50 276.00,241.50 276.00,241.50" />
  <path id="w5"
        class="word"
        d="M 400.50,127.50
           C 400.50,127.50 343.50,174.00 343.50,174.00
             343.50,174.00 421.50,222.00 421.50,222.00
             421.50,222.00 328.50,244.50 328.50,244.50" />
  <path id="w4"
        class="word"
        d="M 445.50,282.00
           C 445.50,282.00 397.50,337.50 397.50,337.50
             397.50,337.50 358.50,226.50 358.50,226.50
             358.50,226.50 318.00,279.00 318.00,279.00" />
  <path id="w3"
        class="word"
        d="M 316.50,277.50
           C 316.50,277.50 304.50,225.00 304.50,225.00
             304.50,225.00 252.00,340.50 252.00,340.50
             252.00,340.50 225.00,280.50 225.00,280.50M 318.00,277.50" />
  <path id="w2"
        class="word"
        d="M 129.00,321.00M 225.00,279.00
           C 225.00,279.00 198.00,336.00 198.00,336.00
             198.00,336.00 165.00,223.50 165.00,223.50
             165.00,223.50 148.50,277.50 148.50,277.50M 225.00,280.50" />
  <path id="w1"
        class="word"
        d="M 45.00,274.50
           C 45.00,274.50 64.50,229.50 64.50,229.50
             64.50,229.50 99.00,336.00 99.00,336.00
             99.00,336.00 147.00,277.50 147.00,277.50M 148.50,277.50M 318.00,277.50" />
</g>
</svg>
