<?xml version="1.0" encoding="UTF-8" standalone="no"?>
<?xml-stylesheet href="color.css" type="text/css"?>
<!DOCTYPE svg PUBLIC "-//W3C//DTD SVG 20010904//EN"
              "http://www.w3.org/TR/2001/REC-SVG-20010904/DTD/svg10.dtd">

<svg xmlns="http://www.w3.org/2000/svg"
     xmlns:xlink="http://www.w3.org/1999/xlink"
     width="5.09in" height="9.42in"
     viewBox="0 0 1018 1884">
  <image x="0" y="0" width="1018px" height="1884px"
         xlink:href="../ee.jpg">
    <title>My image</title>
  </image>
  <defs>
    <linearGradient id="dawn">
      <stop offset="5%" stop-color="#F600E9" />
      <stop offset="50%" stop-color="#FF6" />
    </linearGradient>
    <radialGradient id="painted" spreadMethod="repeat"
		    cx="0" cy="-10" r="1"
		    >
      <stop offset="0%" stop-color="#FF6" />
      <stop offset="85%" stop-color="#F60" />
      <stop offset="95%" stop-color="#F600E9"/>
    </radialGradient>
    <linearGradient id="orange">
      <stop offset="5%" stop-color="#FF6" />
      <stop offset="70%" stop-color="#F60" />
      <stop offset="100%" stop-color="#FF" />
    </linearGradient>
    <radialGradient id="butterfly"
		    cx="0.2" cy="0.2" r="0.8" fx="1" fy="2"
		    >
      <stop offset="5%" stop-color="#F600E9" />
      <stop offset="35%" stop-color="#FF6" />
    </radialGradient>
  </defs>
  <g id="wletters">
  <path id="w27"
        class="word"
        d="M 900.00,255.33
           C 900.00,255.33 902.67,288.00 925.33,320.00
             948.00,352.00 984.00,360.67 984.00,360.67
             984.00,360.67 970.00,350.67 966.67,339.33
             963.33,328.00 966.00,316.00 966.00,316.00" />
  <path id="w26"
        class="word"
        d="M 788.67,322.00
           C 788.67,322.00 794.00,331.33 784.00,376.67
             758.00,458.00 718.00,484.00 718.00,484.00
             718.00,484.00 726.67,460.67 726.67,435.33
             726.67,410.00 714.67,368.67 714.67,368.67" />
  <path id="w25"
        class="word"
        d="M 760.67,236.67
           C 760.67,236.67 774.00,262.00 834.67,227.33
             891.33,194.00 916.00,154.00 916.00,154.00
             916.00,154.00 893.33,219.33 864.00,255.33
             834.67,291.33 787.33,322.00 787.33,322.00" />
  <path id="w24"
        class="word"
        d="M 668.67,342.00
           C 668.67,342.00 582.67,328.67 570.00,236.00
             557.33,143.33 592.67,102.67 592.67,102.67
             592.67,102.67 613.33,178.67 686.67,224.67
             748.00,260.00 760.67,236.67 760.67,236.67" />
  <path id="w23"
        class="word"
        d="M 675.00,400.50
           C 675.00,400.50 674.33,395.83 611.33,403.33
             536.00,421.33 498.00,441.33 498.00,441.33
             498.00,441.33 514.67,413.33 577.33,380.00
             640.00,346.67 668.00,343.33 668.00,343.33" />
  <path id="w22"
        class="word"
        d="M 618.00,519.00
           C 618.00,519.00 516.00,531.00 432.00,358.50
             384.00,244.50 439.50,40.50 439.50,40.50
             439.50,40.50 415.50,72.00 349.50,178.50
             268.50,306.00 208.50,463.50 208.50,463.50" />
  <path id="w21"
        class="word"
        d="M 867.33,528.00
           C 867.33,528.00 864.00,515.33 822.00,515.33
             780.00,515.33 747.33,528.67 747.33,528.67
             747.33,528.67 762.67,500.67 803.33,483.33
             844.00,466.00 872.00,470.00 872.00,470.00" />
  <path id="w20"
        class="word"
        d="M 601.33,586.00
           C 601.33,586.00 615.33,611.33 642.67,612.00
             698.67,608.67 721.33,554.67 721.33,554.67
             721.33,554.67 701.33,581.33 648.67,580.00
             596.00,578.67 590.67,560.00 590.67,560.00" />
  <path id="w19"
        class="word"
        d="M 790.00,737.33
           C 790.00,737.33 833.33,738.67 868.67,701.33
             904.00,664.00 904.67,626.00 904.67,626.00
             904.67,626.00 892.67,636.00 862.67,636.00
             832.67,636.00 820.00,625.33 820.00,625.33" />
  <path id="w18"
        class="word"
        d="M 642.00,816.67
           C 642.00,816.67 646.00,836.00 628.00,863.33
             610.00,890.67 562.00,909.33 562.00,909.33
             562.00,909.33 592.00,922.67 627.33,918.67
             662.67,914.67 687.33,888.67 687.33,888.67" />
  <path id="w17"
        class="word"
        d="M 612.00,823.00
           C 612.00,823.00 618.67,829.67 634.67,829.67
             650.67,829.67 662.00,819.33 662.00,819.33
             662.00,819.33 650.67,843.33 629.33,851.33
             608.00,859.33 607.33,851.33 607.33,851.33" />
  <path id="w16"
        class="word"
        d="M 570.00,789.00
           C 570.00,789.00 596.00,771.00 634.00,768.00
             672.00,765.00 693.00,779.00 693.00,779.00
             693.00,779.00 678.00,780.00 651.00,795.00
             624.00,810.00 611.00,824.00 611.00,824.00" />
  <path id="w15"
        class="word"
        d="M 784.00,1034.00
           C 784.00,1034.00 818.00,994.00 859.00,982.00
             900.00,970.00 904.00,983.00 904.00,983.00
             904.00,983.00 901.00,960.00 867.00,935.00
             833.00,910.00 799.00,924.00 799.00,924.00" />
  <path id="w14"
        class="word"
        d="M 615.00,1090.00
           C 615.00,1090.00 616.00,1066.00 633.00,1040.00
             650.00,1014.00 666.00,1005.00 666.00,1005.00
             666.00,1005.00 647.00,1042.00 643.00,1063.00
             639.00,1084.00 642.00,1106.00 642.00,1106.00" />
  <path id="w13"
        class="word"
        d="M 555.00,1068.00
           C 555.00,1068.00 576.00,1084.00 578.00,1117.00
             580.00,1150.00 564.00,1170.00 564.00,1170.00
             564.00,1170.00 587.00,1146.00 594.00,1125.00
             601.00,1104.00 605.00,1067.00 605.00,1067.00" />
  <path id="w12"
        class="word"
        d="M 558.00,1225.00
           C 558.00,1225.00 591.00,1221.00 607.00,1177.00
             623.00,1133.00 615.00,1133.00 615.00,1133.00
             615.00,1133.00 596.00,1144.00 579.00,1144.00
             562.00,1144.00 543.00,1139.00 543.00,1139.00" />
  <path id="w11"
        class="word"
        d="M 694.00,1225.00
           C 694.00,1225.00 686.00,1181.00 687.00,1149.00
             688.00,1117.00 700.00,1076.00 700.00,1076.00
             700.00,1076.00 692.00,1066.00 678.00,1068.00
             664.00,1070.00 657.00,1074.00 657.00,1074.00" />
  <path id="w10"
        class="word"
        d="M 753.00,1314.00
           C 753.00,1314.00 776.00,1277.00 808.00,1255.00
             851.00,1222.00 872.00,1231.00 872.00,1231.00
             872.00,1231.00 854.00,1199.00 834.00,1192.00
             769.00,1169.00 778.00,1187.00 778.00,1187.00" />
  <path id="w9"
        class="word"
        d="M 839.00,1312.00
           C 839.00,1312.00 882.00,1348.00 895.00,1396.00
             908.00,1444.00 899.00,1459.00 899.00,1459.00
             899.00,1459.00 933.00,1437.00 942.00,1385.00
             949.00,1307.00 933.00,1258.00 933.00,1258.00" />
  <path id="w8"
        class="word"
        d="M 905.00,1700.00
           C 905.00,1700.00 883.00,1600.00 902.00,1528.00
             921.00,1456.00 957.00,1434.00 957.00,1434.00
             957.00,1434.00 943.00,1424.00 914.00,1427.00
             885.00,1430.00 863.00,1442.00 863.00,1442.00" />
  <path id="w7"
        class="word"
        d="M 534.00,1639.00
           C 534.00,1639.00 516.00,1670.00 500.00,1684.00
             484.00,1698.00 451.00,1712.00 451.00,1712.00
             451.00,1712.00 461.00,1710.00 461.00,1700.00
             438.00,1634.00 366.00,1590.00 366.00,1590.00" />
  <path id="w6"
        class="word"
        d="M 633.00,1579.00
           C 633.00,1579.00 624.00,1628.00 627.00,1657.00
             630.00,1686.00 650.00,1712.00 650.00,1712.00
             650.00,1712.00 612.00,1704.00 588.00,1693.00
             552.00,1676.00 534.00,1639.00 534.00,1639.00" />
  <path id="w5"
        class="word"
        d="M 624.00,1544.00
           C 624.00,1544.00 641.00,1559.00 661.00,1557.00
             681.00,1555.00 691.00,1550.00 691.00,1550.00
             691.00,1550.00 690.00,1563.00 665.00,1572.00
             644.00,1581.00 631.00,1579.00 631.00,1579.00" />
  <path id="w4"
        class="word"
        d="M 612.00,1444.00
           C 612.00,1444.00 620.00,1486.00 644.00,1502.00
             668.00,1518.00 696.00,1524.00 696.00,1524.00
             696.00,1524.00 675.00,1541.00 663.00,1545.00
             651.00,1549.00 622.00,1544.00 622.00,1544.00" />
  <path id="w3"
        class="word"
        d="M 366.00,1592.00
           C 366.00,1592.00 470.00,1614.00 514.00,1610.00
             558.00,1606.00 580.00,1596.00 580.00,1596.00
             580.00,1596.00 542.00,1558.00 564.00,1508.00
             586.00,1458.00 612.00,1442.00 612.00,1442.00" />
  <path id="w2"
        class="word"
        d="M 122.00,1800.00
           C 122.00,1800.00 -9.00,1281.00 117.00,969.00
             243.00,657.00 387.00,486.00 387.00,486.00
             387.00,486.00 297.00,789.00 297.00,999.00
             297.00,1344.00 447.00,1503.00 447.00,1503.00" />
  <path id="w1"
        class="word"
        d="M 174.00,1796.00
           C 174.00,1796.00 196.00,1740.00 250.00,1748.00
             304.00,1756.00 304.00,1804.00 304.00,1804.00
             304.00,1804.00 296.00,1706.00 230.00,1706.00
             144.00,1708.00 122.00,1804.00 122.00,1804.00" />
</g>
</svg>
