<?xml version="1.0" encoding="UTF-8" standalone="no"?>
<?xml-stylesheet href="svg.css" type="text/css"?>
<!DOCTYPE svg PUBLIC "-//W3C//DTD SVG 20010904//EN"
              "http://www.w3.org/TR/2001/REC-SVG-20010904/DTD/svg10.dtd">

<svg xmlns="http://www.w3.org/2000/svg"
     xmlns:xlink="http://www.w3.org/1999/xlink"
     width="0.625in" height="1.7in"
     viewBox="0 0 375 1020">
  <image x="0" y="0" width="375px" height="1020px"
         xlink:href="../e.jpg">
    <title>My image</title>
  </image>
  <g id="wletters">
  <path id="w27"
	class="word"
        d="M 59.00,935.00
           C 53.00,939.00 58.00,945.00 63.00,943.00
             67.00,942.00 67.00,934.00 59.00,935.00 Z
           M 129.50,968.00
           C 129.50,968.00 104.50,943.00 104.50,943.00
             104.50,943.00 74.50,969.50 74.50,969.50M 87.00,970.50
           C 87.00,970.50 64.00,942.50 64.00,942.50M 8.50,987.50
           C 8.50,987.50 57.50,942.50 57.50,942.50" />
  <path id="w26"
	class="word"
        d="M 172.00,956.00
           C 164.00,961.00 170.00,969.00 176.00,968.00
             183.00,966.00 183.00,954.00 172.00,956.00 Z
           M 172.50,878.50
           C 172.50,878.50 209.50,902.50 209.50,902.50
             209.50,902.50 136.00,944.50 136.00,944.50M 139.00,930.00
           C 139.00,930.00 171.50,957.00 171.50,957.00M 139.50,1004.50
           C 139.50,1004.50 171.00,966.50 171.00,966.50" />
  <path id="w25"
	class="word"
        d="M 175.00,819.00
           C 167.00,824.00 173.00,832.00 179.00,831.00
             186.00,829.00 186.00,817.00 175.00,819.00 Z
           M 180.00,753.00
           C 180.00,753.00 235.00,773.50 235.00,773.50
             235.00,773.50 149.00,818.00 149.00,818.00M 151.50,810.50
           C 151.50,810.50 172.50,822.50 172.50,822.50M 173.50,880.00
           C 173.50,880.00 176.50,831.00 176.50,831.00" />
  <path id="w24"
	class="word"
        d="M 353.00,695.00
           C 347.00,700.00 353.00,706.00 357.00,704.00
             363.00,703.00 362.00,693.00 353.00,695.00 Z
           M 306.50,633.50
           C 306.50,633.50 341.00,623.50 341.00,623.50
             341.00,623.50 307.00,712.50 307.00,712.50M 302.50,703.50
           C 302.50,703.50 350.50,700.50 350.50,700.50M 357.50,663.00
           C 357.50,663.00 357.00,695.50 357.00,695.50" />
  <path id="w23"
	class="word"
        d="M 264.00,715.00
           C 256.00,720.00 262.00,728.00 268.00,727.00
             275.00,725.00 275.00,713.00 264.00,715.00 Z
           M 274.50,648.00
           C 274.50,648.00 266.00,690.00 266.00,690.00
             266.00,690.00 281.50,691.00 281.50,691.00M 279.00,684.50
           C 279.00,684.50 266.50,714.50 266.50,714.50M 253.50,762.00
           C 253.50,762.00 264.50,726.50 264.50,726.50" />
  <path id="w22"
	class="word"
        d="M 296.00,668.00
           C 288.00,673.00 294.00,680.00 300.00,678.00
             305.00,676.00 305.00,666.00 296.00,668.00 Z
           M 279.50,623.50
           C 279.50,623.50 299.00,643.50 299.00,643.50
             299.00,643.50 247.00,681.00 247.00,681.00M 248.00,669.50
           C 248.00,669.50 293.00,671.00 293.00,671.00M 282.00,715.50
           C 282.00,715.50 297.50,678.50 297.50,678.50" />
  <path id="w21"
	class="word"
        d="M 282.00,608.00
           C 276.00,613.00 282.00,619.00 286.00,617.00
             292.00,616.00 291.00,606.00 282.00,608.00 Z
           M 263.00,571.00
           C 263.00,571.00 280.50,588.50 280.50,588.50
             280.50,588.50 248.00,615.00 248.00,615.00M 245.50,608.50
           C 245.50,608.50 280.50,610.00 280.50,610.00M 307.50,635.00
           C 307.50,635.00 289.50,615.50 289.50,615.50" />
  <path id="w20"
	class="word"
        d="M 213.00,579.00
           C 207.00,583.00 212.00,589.00 217.00,587.00
             221.00,586.00 221.00,578.00 213.00,579.00 Z
           M 177.00,544.00
           C 177.00,544.00 198.00,557.00 198.00,557.00
             198.00,557.00 226.00,540.00 226.00,540.00M 216.00,535.50
           C 216.00,535.50 213.50,579.00 213.50,579.00M 258.50,589.00
           C 258.50,589.00 220.00,584.50 220.00,584.50" />
  <path id="w19"
	class="word"
        d="M 192.00,576.00
           C 184.00,581.00 190.00,588.00 196.00,586.00
             201.00,584.00 201.00,574.00 192.00,576.00 Z
           M 196.50,510.50
           C 196.50,510.50 171.00,531.50 171.00,531.50
             171.00,531.50 236.00,563.00 236.00,563.00M 237.50,554.50
           C 237.50,554.50 197.00,575.50 197.00,575.50M 180.50,754.50
           C 180.50,754.50 191.50,586.00 191.50,586.00" />
  <path id="w18"
	class="word"
        d="M 219.00,395.00
           C 215.00,400.00 219.00,404.00 223.00,402.00
             227.00,401.00 227.00,393.00 219.00,395.00 Z
           M 180.50,427.50
           C 180.50,427.50 195.00,418.50 195.00,418.50
             195.00,418.50 225.50,439.50 225.50,439.50M 218.00,443.00
           C 218.00,443.00 220.00,402.50 220.00,402.50M 262.00,399.00
           C 262.00,399.00 225.50,397.00 225.50,397.00" />
  <path id="w17"
	class="word"
        d="M 199.00,436.00
           C 195.00,441.00 199.00,445.00 203.00,443.00
             207.00,442.00 207.00,434.00 199.00,436.00 Z
           M 203.00,379.50
           C 203.00,379.50 187.50,388.50 187.50,388.50
             187.50,388.50 230.50,423.00 230.50,423.00M 230.50,413.00
           C 230.50,413.00 203.00,435.00 203.00,435.00M 196.00,511.50
           C 196.00,511.50 200.00,443.50 200.00,443.50" />
  <path id="w16"
	class="word"
        d="M 131.00,378.00
           C 125.00,383.00 131.00,389.00 135.00,387.00
             141.00,386.00 140.00,376.00 131.00,378.00 Z
           M 175.00,354.00
           C 175.00,354.00 137.00,378.50 137.00,378.50M 104.00,338.50
           C 104.00,338.50 131.00,378.50 131.00,378.50M 118.00,339.50
           C 118.00,339.50 71.50,375.00 71.50,375.00
             71.50,375.00 42.00,346.50 42.00,346.50" />
  <path id="w15"
	class="word"
        d="M 187.00,353.00
           C 183.00,358.00 188.00,360.00 191.00,359.00
             193.00,357.00 193.00,352.00 187.00,353.00 Z
           M 197.50,303.50
           C 197.50,303.50 218.00,319.00 218.00,319.00
             218.00,319.00 165.00,344.00 165.00,344.00M 168.50,333.50
           C 168.50,333.50 187.00,353.50 187.00,353.50M 147.00,380.50
           C 147.00,380.50 186.00,357.00 186.00,357.00" />
  <path id="w14"
	class="word"
        d="M 150.00,285.00
           C 144.00,289.00 149.00,295.00 154.00,293.00
             158.00,292.00 158.00,284.00 150.00,285.00 Z
           M 100.00,306.50
           C 100.00,306.50 120.00,306.50 120.00,306.50
             120.00,306.50 136.50,236.00 136.50,236.00M 129.50,237.50
           C 129.50,237.50 151.00,284.50 151.00,284.50M 142.50,352.00
           C 142.50,352.00 152.00,294.00 152.00,294.00" />
  <path id="w13"
	class="word"
        d="M 94.00,288.00
           C 90.00,293.00 95.00,295.00 98.00,294.00
             100.00,292.00 100.00,287.00 94.00,288.00 Z
           M 67.00,305.00
           C 67.00,305.00 82.00,306.00 82.00,306.00
             82.00,306.00 75.50,285.50 75.50,285.50M 72.50,290.50
           C 72.50,290.50 93.50,290.50 93.50,290.50M 101.00,306.00
           C 101.00,306.00 96.50,294.00 96.50,294.00" />
  <path id="w12"
	class="word"
        d="M 60.00,285.00
           C 57.00,289.00 61.00,291.00 63.00,290.00
             65.00,289.00 65.00,285.00 60.00,285.00 Z
           M 31.00,300.50
           C 31.00,300.50 46.50,302.50 46.50,302.50
             46.50,302.50 40.00,284.50 40.00,284.50M 37.00,288.00
           C 37.00,288.00 60.00,289.00 60.00,289.00M 67.50,305.00
           C 67.50,305.00 62.00,290.50 62.00,290.50" />
  <path id="w11"
	class="word"
        d="M 68.00,203.00
           C 65.00,207.00 69.00,209.00 71.00,208.00
             73.00,207.00 73.00,203.00 68.00,203.00 Z
           M 80.33,229.00
           C 80.33,229.00 69.50,208.00 69.50,208.00M 47.00,201.00
           C 47.00,201.00 66.50,204.00 66.50,204.00M 49.00,206.50
           C 49.00,206.50 68.00,189.50 68.00,189.50
             68.00,189.50 66.00,174.00 66.00,174.00" />
  <path id="w10"
	class="word"
        d="M 91.00,233.00
           C 85.00,237.00 90.00,243.00 95.00,241.00
             99.00,240.00 99.00,232.00 91.00,233.00 Z
           M 120.33,237.67
           C 120.33,237.67 97.00,237.00 97.00,237.00M 61.67,234.33
           C 61.67,234.33 89.00,235.67 89.00,235.67M 63.67,240.33
           C 63.67,240.33 83.00,215.00 83.00,215.00
             83.00,215.00 59.67,220.33 59.67,220.33" />
  <path id="w9"
	class="word"
        d="M 73.00,240.00
           C 67.00,245.00 73.00,251.00 77.00,249.00
             83.00,248.00 82.00,238.00 73.00,240.00 Z
           M 116.33,251.00
           C 116.33,251.00 107.00,234.33 107.00,234.33
             107.00,234.33 78.33,275.67 78.33,275.67M 89.67,276.33
           C 89.67,276.33 77.67,249.00 77.67,249.00M 44.33,267.67
           C 44.33,267.67 71.67,246.33 71.67,246.33" />
  <path id="w8"
	class="word"
        d="M 150.00,251.00
           C 144.00,255.00 149.00,261.00 154.00,259.00
             158.00,258.00 158.00,250.00 150.00,251.00 Z
           M 212.33,264.33
           C 212.33,264.33 186.33,247.67 186.33,247.67
             186.33,247.67 183.00,292.33 183.00,292.33M 191.67,286.33
           C 191.67,286.33 156.33,259.00 156.33,259.00M 115.67,251.67
           C 115.67,251.67 149.00,251.67 149.00,251.67" />
  <path id="w7"
	class="word"
        d="M 208.00,277.00
           C 200.00,282.00 206.00,290.00 212.00,289.00
             219.00,287.00 219.00,275.00 208.00,277.00 Z
           M 203.00,381.00
           C 203.00,381.00 209.67,288.33 209.67,288.33M 171.67,256.33
           C 171.67,256.33 205.67,278.33 205.67,278.33M 172.33,263.67
           C 172.33,263.67 241.00,232.33 241.00,232.33
             241.00,232.33 213.00,218.33 213.00,218.33" />
  <path id="w6"
	class="word"
        d="M 65.00,121.00
           C 59.00,126.00 65.00,132.00 69.00,130.00
             75.00,129.00 74.00,119.00 65.00,121.00 Z
           M 209.00,131.00
           C 209.00,131.00 211.00,98.33 211.00,98.33
             211.00,98.33 94.33,161.00 94.33,161.00M 113.67,163.00
           C 113.67,163.00 72.33,129.67 72.33,129.67M 39.67,157.00
           C 39.67,157.00 63.67,128.33 63.67,128.33" />
  <path id="w5"
	class="word"
        d="M 215.00,157.00
           C 209.00,161.00 214.00,167.00 219.00,165.00
             223.00,164.00 223.00,156.00 215.00,157.00 Z
           M 221.67,106.33
           C 221.67,106.33 202.33,110.33 202.33,110.33
             202.33,110.33 244.33,141.67 244.33,141.67M 245.00,131.00
           C 245.00,131.00 216.33,156.33 216.33,156.33M 213.00,220.33
           C 213.00,220.33 216.33,165.00 216.33,165.00" />
  <path id="w4"
	class="word"
        d="M 295.00,210.00
           C 289.00,214.00 294.00,220.00 299.00,218.00
             303.00,217.00 303.00,209.00 295.00,210.00 Z
           M 302.33,175.00
           C 302.33,175.00 327.00,191.67 327.00,191.67
             327.00,191.67 252.33,203.00 252.33,203.00M 255.00,195.67
           C 255.00,195.67 292.33,212.33 292.33,212.33M 235.67,251.67
           C 235.67,251.67 293.00,217.67 293.00,217.67" />
  <path id="w3"
	class="word"
        d="M 231.00,117.00
           C 225.00,121.00 230.00,127.00 235.00,125.00
             239.00,124.00 239.00,116.00 231.00,117.00 Z
           M 232.33,153.00
           C 232.33,153.00 231.67,125.67 231.67,125.67M 250.33,96.33
           C 250.33,96.33 234.33,117.00 234.33,117.00M 237.00,102.33
           C 237.00,102.33 325.00,109.00 325.00,109.00
             325.00,109.00 297.67,83.67 297.67,83.67" />
  <path id="w2"
	class="word"
        d="M 305.00,125.00
           C 297.00,130.00 303.00,138.00 309.00,137.00
             316.00,135.00 316.00,123.00 305.00,125.00 Z
           M 248.33,69.00
           C 248.33,69.00 213.67,86.33 213.67,86.33
             213.67,86.33 331.67,89.67 331.67,89.67M 321.67,81.67
           C 321.67,81.67 308.33,124.33 308.33,124.33M 302.33,174.33
           C 302.33,174.33 305.67,136.33 305.67,136.33" />
  <path id="w1"
	class="word"
        d="M 223.00,47.00
           C 217.00,52.00 223.00,58.00 227.00,56.00
             233.00,55.00 232.00,45.00 223.00,47.00 Z
           M 177.00,17.67
           C 177.00,17.67 224.33,28.33 224.33,28.33
             224.33,28.33 169.67,52.33 169.67,52.33M 171.00,45.00
           C 171.00,45.00 220.33,52.33 220.33,52.33M 221.67,106.33
           C 221.67,106.33 223.67,56.33 223.67,56.33" />
</g>
</svg>
