<?xml version="1.0" encoding="UTF-8" standalone="no"?>
<?xml-stylesheet href="svg.css" type="text/css"?>
<!DOCTYPE svg PUBLIC "-//W3C//DTD SVG 20010904//EN"
              "http://www.w3.org/TR/2001/REC-SVG-20010904/DTD/svg10.dtd">

<svg xmlns="http://www.w3.org/2000/svg"
     xmlns:xlink="http://www.w3.org/1999/xlink"
     width="1.25667in" height="1.07667in"
     viewBox="0 0 754 646">
  <image x="0" y="0" width="754px" height="646px"
         xlink:href="../ey.jpg">
    <title>My image</title>
  </image>
  <g id="wletters">
  <path id="20"
        fill="none" stroke="black" stroke-width="1"
        d="M 343.00,343.00
           C 334.00,348.00 340.00,358.00 347.00,357.00
             356.00,355.00 355.00,341.00 343.00,343.00 Z
           M 413.31,347.93
           C 413.31,347.93 351.26,349.04 351.26,349.04M 295.85,284.77
           C 295.85,284.77 343.50,343.50 343.50,343.50" />
  <path id="21"
        fill="none" stroke="black" stroke-width="1"
        d="M 480.00,410.00
           C 471.00,417.00 480.00,425.00 486.00,422.00
             493.00,418.00 490.00,407.00 480.00,410.00 Z
           M 529.65,455.41
           C 529.65,455.41 486.44,419.96 486.44,419.96M 413.31,349.04
           C 413.31,349.04 475.36,408.87 475.36,408.87" />
  <path id="22"
        fill="none" stroke="black" stroke-width="1"
        d="M 596.00,359.00
           C 596.00,359.00 596.00,360.00 596.00,360.00
             596.00,360.00 597.00,359.00 597.00,359.00
             597.00,359.00 596.00,359.00 596.00,359.00 Z
           M 480.90,345.72
           C 480.90,345.72 583.95,349.04 583.95,349.04M 530.76,455.41
           C 530.76,455.41 588.38,355.69 588.38,355.69" />
  <path id="23"
        fill="none" stroke="black" stroke-width="1"
        d="M 466.00,340.00
           C 457.00,347.00 466.00,355.00 472.00,352.00
             479.00,348.00 476.00,337.00 466.00,340.00 Z
           M 488.66,291.42
           C 488.66,291.42 469.82,339.07 469.82,339.07M 482.01,403.33
           C 482.01,403.33 468.71,353.47 468.71,353.47" />
  <path id="24"
        fill="none" stroke="black" stroke-width="1"
        d="M 407.00,331.00
           C 398.00,338.00 407.00,346.00 413.00,343.00
             420.00,339.00 417.00,328.00 407.00,331.00 Z
           M 490.87,291.42
           C 490.87,291.42 415.52,333.53 415.52,333.53M 355.69,336.85
           C 355.69,336.85 403.33,336.85 403.33,336.85" />
  <path id="25"
        fill="none" stroke="black" stroke-width="1"
        d="M 387.00,253.00
           C 377.00,259.00 384.00,271.00 393.00,267.00
             401.00,264.00 399.00,250.00 387.00,253.00 Z
           M 309.15,258.18
           C 309.15,258.18 382.28,255.96 382.28,255.96M 356.80,336.85
           C 356.80,336.85 388.93,265.93 388.93,265.93" />
  <path id="26"
        fill="none" stroke="black" stroke-width="1"
        d="M 415.00,189.00
           C 407.00,194.00 413.00,202.00 419.00,201.00
             426.00,199.00 426.00,187.00 415.00,189.00 Z
           M 473.14,162.89
           C 473.14,162.89 422.17,193.91 422.17,193.91M 310.26,259.29
           C 310.26,259.29 414.42,198.34 414.42,198.34" />
  <path id="27"
        fill="none" stroke="black" stroke-width="1"
        d="M 607.00,78.00
           C 598.00,85.00 607.00,93.00 613.00,90.00
             620.00,86.00 617.00,75.00 607.00,78.00 Z
           M 703.62,26.59
           C 703.62,26.59 613.87,80.89 613.87,80.89M 477.57,160.67
           C 477.57,160.67 602.79,85.32 602.79,85.32" />
  <path id="16"
        fill="none" stroke="black" stroke-width="1"
        d="M 289.00,299.00
           C 280.00,304.00 286.00,314.00 293.00,313.00
             302.00,311.00 301.00,297.00 289.00,299.00 Z
           M 253.75,351.26
           C 253.75,351.26 286.99,310.26 286.99,310.26M 329.09,355.69
           C 329.09,355.69 292.53,310.26 292.53,310.26" />
  <path id="13"
        fill="none" stroke="black" stroke-width="1"
        d="M 234.00,339.00
           C 225.00,346.00 234.00,354.00 240.00,351.00
             247.00,347.00 244.00,336.00 234.00,339.00 Z
           M 167.00,349.00
           C 167.00,349.00 231.00,345.00 231.00,345.00M 294.00,285.00
           C 294.00,285.00 239.00,339.00 239.00,339.00" />
  <path id="12"
        fill="none" stroke="black" stroke-width="1"
        d="M 206.00,376.00
           C 196.00,382.00 203.00,394.00 212.00,390.00
             220.00,387.00 218.00,373.00 206.00,376.00 Z
           M 264.00,438.00
           C 264.00,438.00 214.00,389.00 214.00,389.00M 167.00,349.00
           C 167.00,349.00 203.00,378.00 203.00,378.00" />
  <path id="11"
        fill="none" stroke="black" stroke-width="1"
        d="M 149.00,436.00
           C 139.00,442.00 146.00,454.00 155.00,450.00
             163.00,447.00 161.00,433.00 149.00,436.00 Z
           M 153.00,528.00
           C 153.00,528.00 153.00,450.00 153.00,450.00M 264.00,438.00
           C 264.00,438.00 159.00,441.00 159.00,441.00" />
  <path id="10"
        fill="none" stroke="black" stroke-width="1"
        d="M 151.00,599.00
           C 143.00,604.00 149.00,612.00 155.00,611.00
             162.00,609.00 162.00,597.00 151.00,599.00 Z
           M 76.00,603.00
           C 76.00,603.00 149.00,604.00 149.00,604.00M 154.00,537.00
           C 154.00,537.00 153.00,600.00 153.00,600.00" />
  <path id="9"
        fill="none" stroke="black" stroke-width="1"
        d="M 79.00,471.00
           C 70.00,476.00 76.00,486.00 83.00,485.00
             92.00,483.00 91.00,469.00 79.00,471.00 Z
           M 136.00,475.00
           C 136.00,475.00 88.00,475.00 88.00,475.00M 78.00,532.00
           C 78.00,532.00 82.00,483.00 82.00,483.00" />
  <path id="8"
        fill="none" stroke="black" stroke-width="1"
        d="M 73.00,441.00
           C 64.00,448.00 73.00,456.00 79.00,453.00
             86.00,449.00 83.00,438.00 73.00,441.00 Z
           M 136.00,474.00
           C 136.00,474.00 81.00,449.00 81.00,449.00M 43.00,504.00
           C 43.00,504.00 72.00,453.00 72.00,453.00" />
  <path id="7"
        fill="none" stroke="black" stroke-width="1"
        d="M 65.00,413.00
           C 55.00,419.00 62.00,431.00 71.00,427.00
             79.00,424.00 77.00,410.00 65.00,413.00 Z
           M 148.00,417.00
           C 148.00,417.00 75.00,417.00 75.00,417.00M 42.00,504.00
           C 42.00,504.00 64.00,425.00 64.00,425.00" />
  <path id="6"
        fill="none" stroke="black" stroke-width="1"
        d="M 146.00,328.00
           C 137.00,332.00 140.00,342.00 147.00,344.00
             159.00,346.00 161.00,325.00 146.00,328.00 Z
           M 237.00,325.00
           C 237.00,325.00 155.00,331.00 155.00,331.00M 148.00,417.00
           C 148.00,417.00 148.00,345.00 148.00,345.00" />
  <path id="5"
        fill="none" stroke="black" stroke-width="1"
        d="M 203.00,254.00
           C 194.00,261.00 203.00,269.00 209.00,266.00
             216.00,262.00 213.00,251.00 203.00,254.00 Z
           M 278.00,258.00
           C 278.00,258.00 211.00,258.00 211.00,258.00M 237.00,324.00
           C 237.00,324.00 208.00,267.00 208.00,267.00" />
  <path id="4"
        fill="none" stroke="black" stroke-width="1"
        d="M 169.00,225.00
           C 160.00,230.00 166.00,240.00 173.00,239.00
             182.00,237.00 181.00,223.00 169.00,225.00 Z
           M 243.00,229.00
           C 243.00,229.00 177.00,231.00 177.00,231.00M 197.00,291.00
           C 197.00,291.00 173.00,238.00 173.00,238.00" />
  <path id="3"
        fill="none" stroke="black" stroke-width="1"
        d="M 214.00,170.00
           C 205.00,177.00 214.00,185.00 220.00,182.00
             227.00,178.00 224.00,167.00 214.00,170.00 Z
           M 287.00,192.00
           C 287.00,192.00 224.00,177.00 224.00,177.00M 243.00,229.00
           C 243.00,229.00 220.00,183.00 220.00,183.00" />
  <path id="2"
        fill="none" stroke="black" stroke-width="1"
        d="M 179.00,136.00
           C 170.00,143.00 179.00,151.00 185.00,148.00
             192.00,144.00 189.00,133.00 179.00,136.00 Z
           M 254.00,159.00
           C 254.00,159.00 189.00,142.00 189.00,142.00M 206.00,204.00
           C 206.00,204.00 185.00,149.00 185.00,149.00" />
  <path id="1"
        fill="none" stroke="black" stroke-width="1"
        d="M 182.00,298.00
           C 182.00,298.00 85.00,87.00 85.00,87.00M 254.00,158.00
           C 254.00,158.00 91.00,83.00 91.00,83.00M 80.00,72.00
           C 71.00,76.00 74.00,86.00 81.00,88.00
             93.00,90.00 95.00,69.00 80.00,72.00 Z" />
</g>
</svg>
