<?xml version="1.0" encoding="UTF-8" standalone="no"?>
<?xml-stylesheet href="svg.css" type="text/css"?>
<!DOCTYPE svg PUBLIC "-//W3C//DTD SVG 20010904//EN"
              "http://www.w3.org/TR/2001/REC-SVG-20010904/DTD/svg10.dtd">

<svg xmlns="http://www.w3.org/2000/svg"
     xmlns:xlink="http://www.w3.org/1999/xlink"
     width="3.94in" height="8.17in"
     viewBox="0 0 788 1634">
  <image x="0" y="0" width="788px" height="1634px"
         xlink:href="../i.jpg">
    <title>My image</title>
  </image>
  <g id="wletters">
  <path id="w27"
        class="word"
        d="M 549.00,1541.00
           C 549.00,1541.00 667.00,1458.00 667.00,1458.00
             667.00,1458.00 745.00,1586.00 745.00,1586.00" />
  <path id="w26"
        class="word"
        d="M 413.00,1459.00
           C 413.00,1459.00 493.00,1371.00 493.00,1371.00
             493.00,1371.00 550.00,1540.00 550.00,1540.00" />
  <path id="w25"
        class="word"
        d="M 412.00,1283.00
           C 412.00,1283.00 290.00,1367.00 290.00,1367.00
             290.00,1367.00 411.00,1459.00 411.00,1459.00" />
  <path id="w24"
        class="word"
        d="M 104.00,1287.00
           C 104.00,1287.00 222.00,1365.00 222.00,1365.00
             222.00,1365.00 111.00,1455.00 111.00,1455.00" />
  <path id="w23"
        class="word"
        d="M 338.00,1307.00
           C 338.00,1307.00 260.00,1454.00 260.00,1454.00
             260.00,1454.00 174.00,1319.00 174.00,1319.00" />
  <path id="w22"
        class="word"
        d="M 412.00,1134.00
           C 412.00,1134.00 388.00,1144.00 359.00,1158.00
             330.00,1172.00 298.00,1196.00 298.00,1196.00
             298.00,1196.00 412.00,1282.00 412.00,1282.00" />
  <path id="w21"
        class="word"
        d="M 118.00,1141.00
           C 118.00,1141.00 222.00,1210.00 222.00,1210.00
             222.00,1210.00 107.00,1287.00 107.00,1287.00" />
  <path id="w20"
        class="word"
        d="M 332.00,1155.00
           C 332.00,1155.00 258.00,1283.00 258.00,1283.00
             258.00,1283.00 185.00,1169.00 185.00,1169.00" />
  <path id="w19"
        class="word"
        d="M 426.00,986.00
           C 426.00,986.00 305.00,1055.00 305.00,1055.00
             305.00,1055.00 413.00,1133.00 413.00,1133.00" />
  <path id="w18"
        class="word"
        d="M 118.00,991.00
           C 118.00,991.00 233.00,1054.00 234.00,1054.00
             235.00,1054.00 116.00,1143.00 116.00,1143.00" />
  <path id="w17"
        class="word"
        d="M 347.00,1006.00
           C 347.00,1006.00 277.00,1140.00 277.00,1140.00
             277.00,1140.00 185.00,1008.00 185.00,1008.00" />
  <path id="w16"
        class="word"
        d="M 424.00,854.00
           C 424.00,854.00 305.00,907.00 305.00,907.00
             305.00,907.00 426.00,987.00 426.00,987.00" />
  <path id="w15"
        class="word"
        d="M 127.00,848.00
           C 127.00,848.00 243.00,905.00 242.00,905.00
             241.00,905.00 120.00,988.00 120.00,988.00" />
  <path id="w14"
        class="word"
        d="M 348.00,863.00
           C 348.00,863.00 277.00,987.00 277.00,987.00
             277.00,987.00 193.00,864.00 193.00,864.00" />
  <path id="w13"
        class="word"
        d="M 431.00,693.00
           C 431.00,693.00 300.00,770.00 300.00,770.00
             300.00,770.00 424.00,855.00 424.00,855.00" />
  <path id="w12"
        class="word"
        d="M 135.00,698.00
           C 135.00,698.00 249.00,765.00 249.00,765.00
             249.00,765.00 127.00,847.00 127.00,847.00" />
  <path id="w11"
        class="word"
        d="M 345.00,716.00
           C 345.00,716.00 281.00,842.00 281.00,842.00
             281.00,842.00 205.00,718.00 205.00,718.00" />
  <path id="w10"
        class="word"
        d="M 407.00,556.00
           C 407.00,556.00 289.00,602.00 289.00,602.00
             289.00,602.00 431.00,693.00 431.00,693.00" />
  <path id="w9"
        class="word"
        d="M 140.00,552.00
           C 140.00,552.00 255.00,606.00 255.00,606.00
             255.00,606.00 138.00,699.00 138.00,699.00" />
  <path id="w8"
        class="word"
        d="M 331.00,560.00
           C 331.00,560.00 272.00,670.00 272.00,670.00
             272.00,670.00 209.00,568.00 209.00,568.00" />
  <path id="w7"
        class="word"
        d="M 382.00,440.00
           C 382.00,440.00 303.00,477.00 303.00,477.00
             303.00,477.00 407.00,556.00 407.00,556.00" />
  <path id="w6"
        class="word"
        d="M 146.00,440.00
           C 146.00,440.00 242.00,478.00 242.00,478.00
             242.00,478.00 139.00,551.00 139.00,551.00" />
  <path id="w5"
        class="word"
        d="M 207.00,454.00
           C 207.00,454.00 276.00,531.00 276.00,531.00
             276.00,531.00 339.00,448.00 339.00,448.00" />
  <path id="w4"
        class="word"
        d="M 294.00,437.00
           C 294.00,437.00 354.00,353.00 354.00,353.00
             354.00,353.00 145.00,439.00 145.00,439.00" />
  <path id="w3"
        class="word"
        d="M 252.00,364.00
           C 252.00,364.00 247.00,266.00 247.00,266.00
             247.00,266.00 381.00,441.00 381.00,441.00" />
  <path id="w2"
        class="word"
        d="M 339.00,246.00
           C 339.00,246.00 260.00,287.00 246.00,293.00
             232.00,299.00 153.00,326.00 153.00,326.00
             153.00,326.00 252.00,364.00 252.00,364.00" />
  <path id="w1"
        class="word"
        d="M 304.00,70.00
           C 304.00,70.00 224.00,165.00 224.00,165.00
             224.00,165.00 339.00,246.00 339.00,246.00" />
</g>
</svg>
