<?xml version="1.0" encoding="UTF-8" standalone="no"?>
<?xml-stylesheet href="svg.css" type="text/css"?>
<!DOCTYPE svg PUBLIC "-//W3C//DTD SVG 20010904//EN"
              "http://www.w3.org/TR/2001/REC-SVG-20010904/DTD/svg10.dtd">

<svg xmlns="http://www.w3.org/2000/svg"
     xmlns:xlink="http://www.w3.org/1999/xlink"
     width="1.33333in" height="1.26in"
     viewBox="0 0 400 378">
  <image x="0" y="0" width="400px" height="378px"
         xlink:href="../o.jpg">
    <title>My image</title>
  </image>
  <g id="wletters">
  <path id="w27"
        class="word"
        d="M 31.00,247.00
           C 25.00,251.00 30.00,257.00 35.00,255.00
             39.00,254.00 39.00,246.00 31.00,247.00 Z
           M 18.00,215.33
           C 18.00,215.33 30.00,246.33 30.00,246.33" />
  <path id="w26"
        class="word"
        d="M 49.00,285.00
           C 43.00,290.00 49.00,296.00 53.00,294.00
             59.00,293.00 58.00,283.00 49.00,285.00 Z
           M 48.67,285.00
           C 48.67,285.00 33.00,256.33 33.00,256.33" />
  <path id="w25"
        class="word"
        d="M 83.00,311.00
           C 77.00,315.00 82.00,321.00 87.00,319.00
             91.00,318.00 91.00,310.00 83.00,311.00 Z
           M 81.00,312.00
           C 81.00,312.00 54.33,294.33 54.33,294.33" />
  <path id="w24"
        class="word"
        d="M 118.00,329.00
           C 110.00,334.00 116.00,341.00 122.00,339.00
             127.00,337.00 127.00,327.00 118.00,329.00 Z
           M 115.67,330.67
           C 115.67,330.67 89.00,317.67 89.00,317.67" />
  <path id="w23"
        class="word"
        d="M 149.00,337.00
           C 143.00,342.00 149.00,348.00 153.00,346.00
             159.00,345.00 158.00,335.00 149.00,337.00 Z
           M 146.67,340.33
           C 146.67,340.33 125.33,336.00 125.33,336.00" />
  <path id="w22"
        class="word"
        d="M 187.00,343.00
           C 181.00,347.00 186.00,353.00 191.00,351.00
             195.00,350.00 195.00,342.00 187.00,343.00 Z
           M 184.33,346.33
           C 184.33,346.33 158.00,343.00 158.00,343.00" />
  <path id="w21"
        class="word"
        d="M 220.00,341.00
           C 214.00,345.00 219.00,351.00 224.00,349.00
             228.00,348.00 228.00,340.00 220.00,341.00 Z
           M 217.33,346.00
           C 217.33,346.00 194.33,348.33 194.33,348.33" />
  <path id="w20"
        class="word"
        d="M 257.00,337.00
           C 251.00,341.00 256.00,347.00 261.00,345.00
             265.00,344.00 265.00,336.00 257.00,337.00 Z
           M 254.33,343.00
           C 254.33,343.00 227.00,345.33 227.00,345.33" />
  <path id="w19"
        class="word"
        d="M 293.00,320.00
           C 287.00,324.00 292.00,330.00 297.00,328.00
             301.00,327.00 301.00,319.00 293.00,320.00 Z
           M 290.33,326.33
           C 290.33,326.33 263.67,338.00 263.67,338.00" />
  <path id="w18"
        class="word"
        d="M 325.00,297.00
           C 319.00,301.00 324.00,307.00 329.00,305.00
             333.00,304.00 333.00,296.00 325.00,297.00 Z
           M 323.00,304.67
           C 323.00,304.67 298.67,319.67 298.67,319.67" />
  <path id="w17"
        class="word"
        d="M 350.00,261.00
           C 344.00,265.00 349.00,271.00 354.00,269.00
             358.00,268.00 358.00,260.00 350.00,261.00 Z
           M 348.67,269.00
           C 348.67,269.00 329.33,297.00 329.33,297.00" />
  <path id="w16"
        class="word"
        d="M 367.00,223.00
           C 361.00,228.00 367.00,234.00 371.00,232.00
             377.00,231.00 376.00,221.00 367.00,223.00 Z
           M 367.00,233.00
           C 367.00,233.00 355.00,260.00 355.00,260.00" />
  <path id="w15"
        class="word"
        d="M 375.00,184.00
           C 369.00,188.00 374.00,194.00 379.00,192.00
             383.00,191.00 383.00,183.00 375.00,184.00 Z
           M 376.33,192.33
           C 376.33,192.33 370.33,222.33 370.33,222.33" />
  <path id="w14"
        class="word"
        d="M 374.00,141.00
           C 370.00,146.00 374.00,150.00 378.00,148.00
             382.00,147.00 382.00,139.00 374.00,141.00 Z
           M 377.00,149.33
           C 377.00,149.33 376.33,182.33 376.33,182.33" />
  <path id="w13"
        class="word"
        d="M 356.00,108.00
           C 352.00,113.00 356.00,117.00 360.00,115.00
             364.00,114.00 364.00,106.00 356.00,108.00 Z
           M 361.00,116.00
           C 361.00,116.00 374.33,140.00 374.33,140.00" />
  <path id="w12"
        class="word"
        d="M 332.00,77.00
           C 328.00,82.00 332.00,86.00 336.00,84.00
             340.00,83.00 340.00,75.00 332.00,77.00 Z
           M 336.33,84.67
           C 336.33,84.67 355.67,107.33 355.67,107.33" />
  <path id="w11"
        class="word"
        d="M 303.00,54.00
           C 297.00,58.00 302.00,64.00 307.00,62.00
             311.00,61.00 311.00,53.00 303.00,54.00 Z
           M 309.33,62.00
           C 309.33,62.00 330.00,78.33 330.00,78.33" />
  <path id="w10"
        class="word"
        d="M 272.00,33.00
           C 266.00,37.00 271.00,43.00 276.00,41.00
             280.00,40.00 280.00,32.00 272.00,33.00 Z
           M 278.33,40.67
           C 278.33,40.67 301.33,55.67 301.33,55.67" />
  <path id="w9"
        class="word"
        d="M 235.00,17.00
           C 229.00,21.00 234.00,27.00 239.00,25.00
             243.00,24.00 243.00,16.00 235.00,17.00 Z
           M 242.33,22.67
           C 242.33,22.67 269.00,34.33 269.00,34.33" />
  <path id="w8"
        class="word"
        d="M 197.00,13.00
           C 191.00,17.00 196.00,23.00 201.00,21.00
             205.00,20.00 205.00,12.00 197.00,13.00 Z
           M 204.33,17.00
           C 204.33,17.00 231.67,21.00 231.67,21.00" />
  <path id="w7"
        class="word"
        d="M 156.00,13.00
           C 150.00,18.00 156.00,24.00 160.00,22.00
             166.00,21.00 165.00,11.00 156.00,13.00 Z
           M 165.33,17.00
           C 165.33,17.00 193.00,16.33 193.00,16.33" />
  <path id="w6"
        class="word"
        d="M 115.00,18.00
           C 109.00,23.00 115.00,29.00 119.00,27.00
             125.00,26.00 124.00,16.00 115.00,18.00 Z
           M 123.00,21.33
           C 123.00,21.33 152.33,18.33 152.33,18.33" />
  <path id="w5"
        class="word"
        d="M 84.00,33.00
           C 76.00,38.00 82.00,45.00 88.00,43.00
             93.00,41.00 93.00,31.00 84.00,33.00 Z
           M 91.33,36.00
           C 91.33,36.00 112.00,25.67 112.00,25.67" />
  <path id="w4"
        class="word"
        d="M 54.00,57.00
           C 46.00,62.00 52.00,69.00 58.00,67.00
             63.00,65.00 63.00,55.00 54.00,57.00 Z
           M 60.00,57.33
           C 60.00,57.33 81.00,41.00 81.00,41.00" />
  <path id="w3"
        class="word"
        d="M 29.00,90.00
           C 21.00,95.00 27.00,102.00 33.00,100.00
             38.00,98.00 38.00,88.00 29.00,90.00 Z
           M 35.67,90.33
           C 35.67,90.33 51.33,66.33 51.33,66.33" />
  <path id="w2"
        class="word"
        d="M 18.00,131.00
           C 10.00,136.00 16.00,143.00 22.00,141.00
             27.00,139.00 27.00,129.00 18.00,131.00 Z
           M 21.67,130.33
           C 21.67,130.33 28.67,101.00 28.67,101.00" />
  <path id="w1"
        class="word"
        d="M 16.00,167.50
           C 16.00,167.50 17.50,141.00 17.50,141.00M 13.00,168.00
           C 7.00,173.00 13.00,179.00 17.00,177.00
             23.00,176.00 22.00,166.00 13.00,168.00 Z" />
  </g>
</svg>
