<?xml version="1.0" encoding="UTF-8" standalone="no"?>
<?xml-stylesheet href="svg.css" type="text/css"?>
<!DOCTYPE svg PUBLIC "-//W3C//DTD SVG 20010904//EN"
              "http://www.w3.org/TR/2001/REC-SVG-20010904/DTD/svg10.dtd">

<svg xmlns="http://www.w3.org/2000/svg"
     xmlns:xlink="http://www.w3.org/1999/xlink"
     width="4.56in" height="5.67in"
     viewBox="0 0 912 1134">
  <image x="0" y="0" width="912px" height="1134px"
         xlink:href="../ou.jpg">
    <title>My image</title>
  </image>
  <g id="wletters">
  <path id="w27"
        class="word"
        d="M 799.00,174.00
           C 790.00,179.00 796.00,189.00 803.00,188.00
             812.00,186.00 811.00,172.00 799.00,174.00 Z
           M 860.00,133.00
           C 860.00,133.00 805.00,174.00 805.00,174.00M 873.00,210.00
           C 873.00,210.00 808.00,182.00 808.00,182.00M 722.00,178.00
           C 722.00,178.00 798.00,177.00 798.00,177.00" />
  <path id="w26"
        class="word"
        d="M 653.00,135.00
           C 644.00,139.00 647.00,149.00 654.00,151.00
             666.00,153.00 668.00,132.00 653.00,135.00 Z
           M 705.00,75.00
           C 705.00,75.00 658.00,135.00 658.00,135.00M 723.00,180.00
           C 723.00,180.00 662.00,146.00 662.00,146.00M 531.00,139.00
           C 531.00,139.00 649.00,143.00 649.00,143.00" />
  <path id="w25"
        class="word"
        d="M 404.00,171.00
           C 392.00,177.00 401.00,191.00 410.00,187.00
             420.00,184.00 417.00,168.00 404.00,171.00 Z
           M 408.00,105.00
           C 408.00,104.00 406.00,172.00 406.00,172.00M 370.00,257.00
           C 370.00,257.00 402.00,188.00 402.00,188.00M 532.00,137.00
           C 532.00,137.00 416.00,176.00 416.00,176.00" />
  <path id="w24"
        class="word"
        d="M 226.00,178.00
           C 217.00,183.00 223.00,193.00 230.00,192.00
             239.00,190.00 238.00,176.00 226.00,178.00 Z
           M 242.00,121.00
           C 242.00,121.00 230.00,177.00 230.00,177.00M 190.00,156.00
           C 190.00,156.00 225.00,181.00 225.00,181.00M 277.00,227.00
           C 277.00,227.00 232.00,188.00 232.00,188.00" />
  <path id="w23"
        class="word"
        d="M 273.00,300.00
           C 262.00,306.00 268.00,319.00 278.00,318.00
             286.00,317.00 289.00,307.00 283.00,301.00
             280.00,299.00 277.00,299.00 273.00,300.00 Z
           M 224.00,383.00
           C 224.00,383.00 271.00,316.00 271.00,316.00M 277.00,228.00
           C 277.00,228.00 274.00,301.00 274.00,301.00M 370.00,256.00
           C 370.00,256.00 285.00,304.00 285.00,304.00" />
  <path id="w22"
        class="word"
        d="M 482.00,671.00
           C 471.00,677.00 477.00,690.00 487.00,689.00
             495.00,688.00 498.00,678.00 492.00,672.00
             489.00,670.00 486.00,670.00 482.00,671.00 Z
           M 507.00,786.00
           C 507.00,786.00 485.00,688.00 485.00,688.00M 435.00,597.00
           C 435.00,597.00 483.00,672.00 483.00,672.00M 401.00,647.00
           C 401.00,647.00 477.00,678.00 477.00,678.00" />
  <path id="w21"
        class="word"
        d="M 306.00,654.00
           C 295.00,660.00 301.00,673.00 311.00,672.00
             319.00,671.00 322.00,661.00 316.00,655.00
             313.00,653.00 310.00,653.00 306.00,654.00 Z
           M 293.00,613.00
           C 293.00,613.00 309.00,654.00 309.00,654.00M 402.00,647.00
           C 402.00,647.00 319.00,662.00 319.00,662.00M 246.00,722.00
           C 246.00,722.00 303.00,667.00 303.00,667.00" />
  <path id="w20"
        class="word"
        d="M 392.00,487.00
           C 384.00,492.00 390.00,499.00 396.00,497.00
             401.00,495.00 401.00,485.00 392.00,487.00 Z
           M 397.00,427.00
           C 397.00,427.00 392.00,488.00 392.00,488.00M 378.00,562.00
           C 378.00,562.00 395.00,497.00 395.00,497.00M 345.00,552.00
           C 345.00,552.00 390.00,496.00 390.00,496.00" />
  <path id="w19"
        class="word"
        d="M 326.00,466.00
           C 317.00,470.00 320.00,480.00 327.00,482.00
             339.00,484.00 341.00,463.00 326.00,466.00 Z
           M 297.00,424.00
           C 297.00,424.00 324.00,471.00 324.00,471.00M 397.00,428.00
           C 397.00,428.00 335.00,468.00 335.00,468.00M 317.00,534.00
           C 317.00,534.00 327.00,482.00 327.00,482.00" />
  <path id="w18"
        class="word"
        d="M 240.00,438.00
           C 228.00,444.00 237.00,458.00 246.00,454.00
             256.00,451.00 253.00,435.00 240.00,438.00 Z
           M 299.00,425.00
           C 299.00,425.00 248.00,442.00 249.00,442.00M 225.00,383.00
           C 225.00,383.00 239.00,439.00 239.00,439.00M 213.00,515.00
           C 213.00,515.00 239.00,453.00 239.00,453.00" />
  <path id="w17"
        class="word"
        d="M 242.00,566.00
           C 231.00,572.00 237.00,585.00 247.00,584.00
             255.00,583.00 258.00,573.00 252.00,567.00
             249.00,565.00 246.00,565.00 242.00,566.00 Z
           M 213.00,514.00
           C 213.00,514.00 242.00,568.00 242.00,568.00M 316.00,533.00
           C 316.00,533.00 254.00,568.00 254.00,568.00M 294.00,614.00
           C 294.00,614.00 251.00,582.00 251.00,582.00" />
  <path id="w16"
        class="word"
        d="M 150.00,649.00
           C 141.00,653.00 144.00,663.00 151.00,665.00
             163.00,667.00 165.00,646.00 150.00,649.00 Z
           M 123.00,729.00
           C 123.00,729.00 150.00,665.00 150.00,665.00M 101.00,610.00
           C 101.00,610.00 148.00,652.00 148.00,652.00M 209.00,619.00
           C 209.00,619.00 159.00,651.00 159.00,651.00" />
  <path id="w15"
        class="word"
        d="M 131.00,805.00
           C 122.00,809.00 125.00,819.00 132.00,821.00
             144.00,823.00 146.00,802.00 131.00,805.00 Z
           M 200.00,852.00
           C 200.00,852.00 141.00,818.00 140.00,818.00M 107.00,889.00
           C 107.00,889.00 129.00,821.00 129.00,821.00M 123.00,728.00
           C 123.00,728.00 131.00,805.00 131.00,805.00" />
  <path id="w14"
        class="word"
        d="M 146.00,988.00
           C 137.00,992.00 140.00,1002.00 147.00,1004.00
             159.00,1006.00 161.00,985.00 146.00,988.00 Z
           M 175.00,940.00
           C 175.00,940.00 155.00,989.00 155.00,989.00M 154.00,1081.00
           C 154.00,1081.00 148.00,1004.00 148.00,1004.00M 107.00,886.00
           C 107.00,886.00 145.00,992.00 145.00,992.00" />
  <path id="w13"
        class="word"
        d="M 246.00,935.00
           C 235.00,941.00 241.00,954.00 251.00,953.00
             259.00,952.00 262.00,942.00 256.00,936.00
             253.00,934.00 250.00,934.00 246.00,935.00 Z
           M 335.00,962.00
           C 335.00,962.00 259.00,944.00 259.00,944.00M 200.00,852.00
           C 200.00,852.00 245.00,937.00 245.00,937.00M 175.00,942.00
           C 175.00,942.00 242.00,945.00 242.00,945.00" />
  <path id="w12"
        class="word"
        d="M 410.00,888.00
           C 401.00,895.00 410.00,903.00 416.00,900.00
             423.00,896.00 420.00,885.00 410.00,888.00 Z
           M 334.00,867.00
           C 334.00,867.00 411.00,889.00 411.00,889.00M 492.00,864.00
           C 492.00,864.00 418.00,893.00 418.00,893.00M 335.00,959.00
           C 335.00,959.00 408.00,899.00 407.00,899.00" />
  <path id="w11"
        class="word"
        d="M 279.00,774.00
           C 267.00,781.00 272.00,793.00 281.00,795.00
             294.00,797.00 298.00,776.00 284.00,774.00
             282.00,774.00 281.00,774.00 279.00,774.00 Z
           M 329.00,730.00
           C 329.00,730.00 293.00,779.00 293.00,779.00M 248.00,722.00
           C 248.00,722.00 278.00,776.00 278.00,776.00M 334.00,866.00
           C 334.00,866.00 282.00,796.00 282.00,796.00" />
  <path id="w10"
        class="word"
        d="M 360.00,771.00
           C 349.00,777.00 355.00,790.00 365.00,789.00
             373.00,788.00 376.00,778.00 370.00,772.00
             367.00,770.00 364.00,770.00 360.00,771.00 Z
           M 400.00,723.00
           C 400.00,723.00 369.00,772.00 369.00,772.00M 358.00,831.00
           C 358.00,831.00 360.00,789.00 360.00,789.00M 329.00,729.00
           C 329.00,729.00 358.00,776.00 358.00,776.00" />
  <path id="w9"
        class="word"
        d="M 430.00,774.00
           C 421.00,779.00 427.00,789.00 434.00,788.00
             443.00,786.00 442.00,772.00 430.00,774.00 Z
           M 467.00,736.00M 437.00,774.00M 429.00,832.00
           C 429.00,832.00 431.00,787.00 431.00,787.00M 402.00,723.00
           C 402.00,723.00 430.00,774.00 430.00,774.00" />
  <path id="w8"
        class="word"
        d="M 543.00,796.00
           C 534.00,801.00 540.00,811.00 547.00,810.00
             556.00,808.00 555.00,794.00 543.00,796.00 Z
           M 601.00,805.00
           C 601.00,805.00 553.00,799.00 552.00,799.00M 507.00,786.00
           C 507.00,786.00 542.00,801.00 542.00,801.00M 494.00,864.00
           C 494.00,864.00 544.00,807.00 544.00,807.00" />
  <path id="w7"
        class="word"
        d="M 687.00,868.00
           C 678.00,875.00 687.00,883.00 693.00,880.00
             700.00,876.00 697.00,865.00 687.00,868.00 Z
           M 719.00,940.00
           C 719.00,940.00 695.00,880.00 695.00,880.00M 671.00,938.00
           C 671.00,938.00 686.00,879.00 686.00,879.00M 656.00,821.00
           C 656.00,821.00 688.00,868.00 688.00,868.00" />
  <path id="w6"
        class="word"
        d="M 528.00,587.00
           C 516.00,593.00 525.00,607.00 534.00,603.00
             544.00,600.00 541.00,584.00 528.00,587.00 Z
           M 583.00,621.00
           C 583.00,621.00 537.00,603.00 537.00,603.00M 569.00,535.00
           C 569.00,535.00 533.00,586.00 533.00,586.00M 498.00,556.00
           C 498.00,556.00 524.00,594.00 524.00,594.00" />
  <path id="w5"
        class="word"
        d="M 649.00,750.00
           C 639.00,756.00 646.00,768.00 655.00,764.00
             663.00,761.00 661.00,747.00 649.00,750.00 Z
           M 683.00,702.00M 656.00,750.00M 656.00,822.00
           C 656.00,822.00 654.00,765.00 654.00,765.00M 600.00,805.00
           C 600.00,805.00 643.00,761.00 643.00,761.00" />
  <path id="w4"
        class="word"
        d="M 622.00,642.00
           C 613.00,646.00 616.00,656.00 623.00,658.00
             635.00,660.00 637.00,639.00 622.00,642.00 Z
           M 612.00,602.00M 626.00,641.00M 682.00,702.00
           C 682.00,702.00 631.00,654.00 631.00,654.00M 582.00,620.00
           C 582.00,620.00 619.00,643.00 619.00,643.00" />
  <path id="w3"
        class="word"
        d="M 622.00,532.00
           C 611.00,538.00 617.00,551.00 627.00,550.00
             635.00,549.00 638.00,539.00 632.00,533.00
             629.00,531.00 626.00,531.00 622.00,532.00 Z
           M 683.00,492.00
           C 683.00,492.00 632.00,533.00 632.00,533.00M 568.00,536.00
           C 568.00,536.00 616.00,542.00 616.00,542.00M 611.00,604.00
           C 611.00,604.00 627.00,548.00 627.00,548.00" />
  <path id="w2"
        class="word"
        d="M 704.00,421.00
           C 695.00,426.00 701.00,436.00 708.00,435.00
             717.00,433.00 716.00,419.00 704.00,421.00 Z
           M 762.00,391.00
           C 762.00,391.00 712.00,423.00 712.00,423.00M 637.00,425.00
           C 637.00,425.00 700.00,426.00 700.00,426.00M 682.00,491.00
           C 682.00,491.00 706.00,435.00 706.00,435.00" />
  <path id="w1"
        class="word"
        d="M 637.00,426.00
           C 637.00,426.00 606.00,383.00 606.00,383.00M 607.00,309.00
           C 607.00,309.00 602.00,365.00 602.00,365.00M 559.00,420.00
           C 559.00,420.00 593.00,381.00 593.00,381.00M 597.00,366.00
           C 586.00,372.00 592.00,385.00 602.00,384.00
             610.00,383.00 613.00,373.00 607.00,367.00
             604.00,365.00 601.00,365.00 597.00,366.00 Z" />
</g>
</svg>
