<?xml version="1.0" encoding="UTF-8" standalone="no"?>
<?xml-stylesheet href="svg.css" type="text/css"?>
<!DOCTYPE svg PUBLIC "-//W3C//DTD SVG 20010904//EN"
              "http://www.w3.org/TR/2001/REC-SVG-20010904/DTD/svg10.dtd">

<svg xmlns="http://www.w3.org/2000/svg"
     xmlns:xlink="http://www.w3.org/1999/xlink"
     width="2in" height="3.46in"
     viewBox="0 0 400 692">
  <image x="0" y="0" width="400px" height="692px"
         xlink:href="../uu.jpg">
    <title>My image</title>
  </image>
  <g id="wletters">
  <path id="w1"
        class="word"
        d="M 160.67,340.67
           C 160.67,340.67 168.00,128.00 168.00,128.00
             168.00,128.00 162.00,180.67 127.33,226.67
             92.67,272.67 49.33,294.00 49.33,294.00
             49.33,294.00 79.33,191.33 82.00,130.00
             70.67,108.67 78.67,107.33 78.67,107.33M 156.00,342.00
           C 150.00,347.00 156.00,353.00 160.00,351.00
             166.00,350.00 165.00,340.00 156.00,342.00 Z
           M 302.01,671.79
           C 309.09,663.43 83.20,541.92 74.91,551.70
             74.91,551.70 329.35,365.02 329.35,365.02
             329.35,365.02 162.75,347.19 162.75,347.19" />
  <path id="w27"
        class="word"
        d="M 189.00,95.00
           C 187.00,98.00 189.00,98.00 190.00,98.00
             191.00,97.00 192.00,95.00 189.00,95.00 Z
           M 188.33,97.33
           C 188.33,97.33 157.00,109.33 157.00,109.33
             157.00,109.33 174.33,113.00 174.33,113.00
             174.33,113.00 146.67,150.00 146.67,150.00M 188.67,95.33
           C 188.67,95.33 174.33,77.67 174.33,77.67
             174.33,77.67 179.67,82.00 191.33,83.00
             203.00,84.00 211.33,83.00 211.33,83.00
             211.33,83.00 201.00,77.00 194.33,53.67
             187.67,30.33 193.67,45.00 193.00,21.00" />
  <path id="w26"
        class="word"
        d="M 152.00,222.00
           C 150.00,225.00 152.00,225.00 153.00,225.00
             154.00,224.00 155.00,222.00 152.00,222.00 Z
           M 127.09,250.36
           C 127.09,250.36 150.91,238.36 150.91,238.36
             150.91,238.36 136.55,233.64 136.55,233.64
             136.55,233.64 151.27,224.55 151.27,224.55M 147.09,150.18
           C 147.09,150.18 146.91,160.91 152.36,170.00
             157.82,179.09 180.91,190.91 180.91,190.91
             180.91,190.91 166.00,206.55 157.45,209.27
             148.91,212.00 144.91,209.45 144.91,209.45
             144.91,209.45 151.64,222.18 151.64,222.18" />
  <path id="w25"
        class="word"
        d="M 74.00,257.00
           C 72.00,260.00 74.00,260.00 75.00,260.00
             76.00,259.00 77.00,257.00 74.00,257.00 Z
           M 109.09,242.73
           C 109.09,242.73 86.00,253.27 86.00,253.27
             86.00,253.27 87.82,262.55 87.82,262.55
             87.82,262.55 76.00,258.00 76.00,258.00M 59.09,284.36
           C 59.09,284.36 63.82,278.36 64.36,273.45
             64.91,268.55 63.45,261.09 63.45,261.09
             63.45,261.09 68.18,265.45 68.55,268.73
             68.91,272.00 68.00,279.27 68.00,279.27
             68.00,279.27 73.45,259.27 73.45,259.27" />
  <path id="w24"
        class="word"
        d="M 56.00,312.00
           C 54.00,315.00 56.00,315.00 57.00,315.00
             58.00,314.00 59.00,312.00 56.00,312.00 Z
           M 83.00,290.50
           C 83.00,290.50 61.75,302.00 61.75,302.00
             61.75,302.00 72.25,324.75 72.25,324.75
             72.25,324.75 58.25,314.00 58.25,314.00M 23.50,316.25
           C 23.50,316.25 32.75,321.75 39.00,321.75
             45.25,321.75 45.00,316.75 45.00,316.75
             45.00,316.75 48.25,322.00 50.25,332.50
             52.25,343.00 52.75,357.75 52.75,357.75
             52.75,357.75 57.00,315.00 57.00,315.00" />
  <path id="w23"
        class="word"
        d="M 129.00,276.00
           C 127.00,279.00 129.00,279.00 130.00,279.00
             131.00,278.00 132.00,276.00 129.00,276.00 Z
           M 93.33,284.33
           C 93.33,284.33 129.67,288.00 129.67,288.00
             129.67,288.00 111.33,275.00 111.33,275.00
             111.33,275.00 128.67,277.00 128.67,277.00M 127.00,250.33
           C 127.00,250.33 127.33,256.33 131.33,262.00
             135.33,267.67 141.33,270.33 141.33,270.33
             141.33,270.33 139.00,271.67 134.00,272.00
             129.00,272.33 121.67,264.92 121.67,264.92
             121.67,264.92 129.50,275.75 129.50,275.75" />
  <path id="w22"
        class="word"
        d="M 83.00,334.00
           C 81.00,337.00 83.00,337.00 84.00,337.00
             85.00,336.00 86.00,334.00 83.00,334.00 Z
           M 90.50,307.50
           C 90.50,307.50 86.62,312.25 81.88,313.75
             77.12,315.25 74.38,313.50 74.25,313.50
             74.12,313.50 75.62,317.88 79.00,321.00
             82.38,324.12 84.75,322.38 84.75,322.38
             84.75,322.38 83.25,334.38 83.25,334.38M 94.00,308.12
           C 94.00,308.12 92.12,336.88 92.12,336.88
             92.12,336.88 88.38,327.12 88.38,327.00
             88.38,326.88 84.38,334.88 84.38,334.88" />
  <path id="w21"
        class="word"
        d="M 86.00,296.00
           C 83.00,300.00 87.00,301.00 88.00,300.00
             90.00,299.00 90.00,295.00 86.00,296.00 Z
           M 130.50,323.25
           C 130.50,323.25 112.50,301.25 112.50,301.25
             112.50,301.25 114.50,316.50 114.50,316.50
             114.50,316.50 89.25,299.25 89.25,299.25M 64.75,327.75
           C 64.75,327.75 68.00,326.25 70.00,320.50
             72.00,314.75 70.50,304.00 70.50,304.00
             70.50,304.00 79.25,306.25 82.75,309.75
             86.25,313.25 86.50,317.50 86.50,317.50
             86.50,317.50 86.50,299.50 86.50,299.50" />
  <path id="w20"
        class="word"
        d="M 214.00,328.00
           C 211.00,332.00 215.00,333.00 216.00,332.00
             218.00,331.00 218.00,327.00 214.00,328.00 Z
           M 186.18,346.36
           C 186.18,346.36 202.91,336.00 202.91,336.00
             202.91,336.00 199.45,348.36 199.45,348.36
             199.45,348.36 213.64,331.82 213.64,331.82M 224.73,351.64
           C 224.73,351.64 222.55,347.27 222.55,341.82
             222.55,336.36 228.18,328.36 228.18,328.36
             228.18,328.36 223.45,333.09 221.27,336.73
             219.09,340.36 218.36,349.27 218.36,349.27
             218.36,349.27 216.00,332.00 216.00,332.00" />
  <path id="w19"
        class="word"
        d="M 139.00,373.00
           C 137.00,376.00 139.00,376.00 140.00,376.00
             141.00,375.00 142.00,373.00 139.00,373.00 Z
           M 134.55,400.73
           C 134.55,400.73 140.55,382.73 140.55,382.73
             140.55,382.73 131.27,385.09 131.27,385.09
             131.27,385.09 139.09,375.45 139.09,375.45M 142.73,345.27
           C 142.73,345.27 143.09,352.18 146.91,357.45
             150.73,362.73 155.82,364.18 155.82,364.18
             155.82,364.18 148.55,365.64 143.09,365.45
             137.64,365.27 132.00,352.73 132.00,352.73
             132.00,352.73 139.09,373.45 139.09,373.45" />
  <path id="w18"
        class="word"
        d="M 115.00,396.00
           C 113.00,399.00 115.00,399.00 116.00,399.00
             117.00,398.00 118.00,396.00 115.00,396.00 Z
           M 110.55,375.45
           C 110.55,375.45 114.91,378.00 115.09,382.18
             115.27,386.36 111.64,389.82 111.64,389.82
             111.64,389.82 115.45,389.45 118.00,387.09
             120.55,384.73 124.36,380.00 124.36,380.00
             124.36,380.00 116.00,396.00 116.00,396.00M 134.36,400.55
           C 134.36,400.55 120.91,400.73 120.91,400.73
             120.91,400.73 127.09,389.45 127.09,389.45
             127.09,389.45 116.91,396.55 116.91,396.55" />
  <path id="w17"
        class="word"
        d="M 123.00,364.00
           C 121.00,367.00 123.00,367.00 124.00,367.00
             125.00,366.00 126.00,364.00 123.00,364.00 Z
           M 101.27,387.82
           C 101.27,387.82 118.00,378.36 118.00,378.36
             118.00,378.36 96.73,380.00 96.73,380.00
             96.73,380.00 122.18,366.00 122.18,366.00M 137.64,354.73
           C 137.64,354.73 134.73,355.82 132.91,358.36
             131.09,360.91 132.73,366.36 132.73,366.36
             132.73,366.36 128.73,363.09 125.27,353.27
             121.82,343.45 122.91,333.27 122.91,333.27
             122.91,333.27 122.73,364.18 122.73,364.18" />
  <path id="w16"
        class="word"
        d="M 81.00,359.00
           C 78.00,363.00 82.00,365.00 84.00,364.00
             86.00,363.00 86.00,359.00 81.00,359.00 Z
           M 103.67,334.33
           C 103.67,334.33 103.33,357.67 103.33,357.67
             103.33,357.67 81.33,345.33 81.33,345.33
             81.33,345.33 83.33,359.33 83.33,359.33M 36.00,349.33
           C 36.00,349.33 47.00,350.00 55.67,346.33
             64.33,342.67 67.33,337.33 67.33,337.33
             67.33,337.33 70.33,348.00 68.00,354.00
             65.67,360.00 60.33,366.00 60.33,366.00
             60.33,366.00 80.33,362.67 80.33,362.67" />
  <path id="w15"
        class="word"
        d="M 146.00,334.00
           C 144.00,337.00 146.00,337.00 147.00,337.00
             148.00,336.00 149.00,334.00 146.00,334.00 Z
           M 183.27,416.58
           C 183.27,416.58 180.18,358.82 180.18,358.82
             180.18,358.82 145.82,358.73 145.82,358.73
             145.82,358.73 146.00,336.84 145.91,337.09M 96.67,319.00
           C 96.67,319.00 101.67,322.67 112.00,321.00
             122.33,319.33 130.00,311.67 130.00,311.67
             130.00,311.67 129.33,317.00 120.67,326.67
             112.00,336.33 96.33,345.00 96.33,345.00
             96.33,345.00 145.00,335.67 145.00,335.67" />
  <path id="w14"
        class="word"
        d="M 152.00,378.00
           C 150.00,381.00 152.00,381.00 153.00,381.00
             154.00,380.00 155.00,378.00 152.00,378.00 Z
           M 150.73,394.00
           C 150.73,394.00 150.91,384.91 150.91,384.91
             150.91,384.91 176.91,384.91 176.91,384.91
             176.91,384.91 153.82,380.00 153.82,380.00M 171.64,363.45
           C 171.64,363.45 165.45,369.09 158.73,370.73
             152.00,372.36 148.36,370.91 148.36,370.91
             148.36,370.91 156.18,374.00 159.64,373.45
             163.09,372.91 172.36,369.27 172.36,369.27
             172.36,369.27 153.82,378.91 153.82,378.91" />
  <path id="w13"
        class="word"
        d="M 157.00,409.00
           C 155.00,412.00 157.00,412.00 158.00,412.00
             159.00,411.00 160.00,409.00 157.00,409.00 Z
           M 176.18,421.82
           C 176.18,421.82 173.27,418.73 165.45,417.64
             157.64,416.55 152.00,418.91 152.00,418.91
             152.00,418.91 156.36,415.45 165.27,414.36
             174.18,413.27 180.36,414.73 180.36,414.73
             180.36,414.73 159.09,411.27 159.09,411.27M 150.73,396.73
           C 150.73,396.73 150.55,404.36 150.55,404.36
             150.55,404.36 176.91,404.36 176.91,404.36
             176.91,404.36 158.91,409.64 158.91,409.64" />
  <path id="w12"
        class="word"
        d="M 135.00,446.00
           C 132.00,450.00 136.00,451.00 137.00,450.00
             139.00,449.00 139.00,445.00 135.00,446.00 Z
           M 105.25,480.00
           C 105.25,480.00 112.75,455.00 112.75,455.00
             112.75,455.00 105.50,443.00 105.50,443.00
             105.50,443.00 134.50,446.75 134.50,446.75M 118.25,471.25
           C 118.25,471.25 118.00,465.25 124.50,460.50
             131.00,455.75 137.50,456.50 137.50,456.50
             137.50,456.50 136.00,452.50 131.25,451.50
             126.50,450.50 119.50,452.25 119.50,452.25
             119.50,452.25 134.25,448.50 134.25,448.50" />
  <path id="w11"
        class="word"
        d="M 108.00,486.00
           C 106.00,489.00 108.00,489.00 109.00,489.00
             110.00,488.00 111.00,486.00 108.00,486.00 Z
           M 85.50,505.25
           C 85.50,505.25 90.00,500.25 97.00,498.75
             104.00,497.25 110.00,498.00 110.00,498.00
             110.00,498.00 105.25,494.25 100.25,494.00
             95.25,493.75 85.25,495.25 85.25,495.25
             85.25,495.25 107.50,488.50 107.50,488.50M 98.00,461.50
           C 98.00,461.50 109.75,476.50 109.75,476.50
             109.75,476.50 89.00,470.25 89.00,470.25
             89.00,470.25 108.00,486.25 108.00,486.25" />
  <path id="w10"
        class="word"
        d="M 126.00,490.00
           C 123.00,494.00 127.00,495.00 128.00,494.00
             130.00,493.00 130.00,489.00 126.00,490.00 Z
           M 152.50,459.00
           C 152.50,459.00 144.00,483.00 144.00,483.00
             144.00,483.00 120.50,457.00 120.50,457.00
             120.50,457.00 127.50,489.50 127.50,489.50M 86.00,577.00
           C 86.00,577.00 81.50,551.50 89.50,536.00
             97.50,520.50 108.50,517.00 108.50,517.00
             108.50,517.00 104.50,511.50 93.00,512.00
             81.50,512.50 70.50,517.50 70.50,517.50
             70.50,517.50 126.00,493.50 126.00,493.50" />
  <path id="w9"
        class="word"
        d="M 232.00,393.00
           C 229.00,397.00 233.00,398.00 234.00,397.00
             236.00,396.00 236.00,392.00 232.00,393.00 Z
           M 287.67,386.67
           C 287.67,386.67 260.00,389.67 260.00,389.67
             260.00,389.67 272.67,401.00 272.67,401.00
             272.67,401.00 235.33,395.67 235.33,395.67M 152.33,459.33
           C 152.33,459.33 188.00,457.67 205.67,433.67
             218.33,416.33 208.67,404.33 208.67,404.33
             208.67,404.33 219.33,409.00 226.33,415.67
             233.33,422.33 232.67,427.33 232.67,427.33
             232.67,427.33 232.33,396.67 232.33,396.67" />
  <path id="w8"
        class="word"
        d="M 310.00,327.00
           C 307.00,331.00 311.00,332.00 312.00,331.00
             314.00,330.00 314.00,326.00 310.00,327.00 Z
           M 356.00,409.50
           C 356.00,409.50 337.00,339.00 337.00,339.00
             337.00,339.00 318.00,348.00 318.00,348.00
             318.00,348.00 312.50,330.00 312.50,330.00M 255.00,340.00
           C 255.00,340.00 270.00,339.00 278.50,335.00
             287.00,331.00 287.00,327.00 287.00,327.00
             287.00,327.00 288.50,333.00 285.50,338.00
             282.50,343.00 275.50,348.50 275.50,348.50
             275.50,348.50 309.00,329.67 309.00,329.67" />
  <path id="w7"
        class="word"
        d="M 324.00,391.00
           C 322.00,394.00 324.00,394.00 325.00,394.00
             326.00,393.00 327.00,391.00 324.00,391.00 Z
           M 262.50,517.50
           C 262.50,517.50 256.00,509.50 244.00,511.50
             232.00,513.50 226.50,523.50 226.50,523.50
             226.50,523.50 238.50,492.00 262.50,464.00
             288.50,430.50 361.00,381.00 361.00,381.00
             361.00,381.00 326.50,391.00 326.50,391.00M 256.00,363.50
           C 256.00,363.50 280.00,393.50 280.00,393.50
             280.00,393.50 289.00,349.50 289.00,349.50
             289.00,349.50 323.50,391.50 323.50,391.50" />
  <path id="w6"
        class="word"
        d="M 215.00,568.00
           C 213.00,571.00 215.00,571.00 216.00,571.00
             217.00,570.00 218.00,568.00 215.00,568.00 Z
           M 182.55,567.64
           C 182.55,567.64 204.36,576.18 204.36,576.18
             204.36,576.18 198.55,552.36 198.55,552.36
             198.55,552.36 214.73,568.55 214.73,568.55M 243.82,543.82
           C 243.82,543.82 237.09,550.91 235.64,556.36
             234.18,561.82 235.09,567.09 235.09,567.09
             235.09,567.09 228.91,565.27 225.27,559.09
             221.64,552.91 226.18,544.55 226.18,544.55
             226.18,544.55 216.55,568.18 216.55,568.18" />
  <path id="w5"
        class="word"
        d="M 305.00,566.00
           C 303.00,569.00 305.00,569.00 306.00,569.00
             307.00,568.00 308.00,566.00 305.00,566.00 Z
           M 277.09,568.36
           C 277.09,568.36 276.91,579.09 276.73,579.09
             276.55,579.09 288.55,564.91 288.55,564.91
             288.55,564.91 304.00,567.45 304.00,567.45M 334.73,556.36
           C 334.73,556.36 326.18,560.18 321.45,566.00
             316.73,571.82 314.36,582.73 314.18,582.73
             314.00,582.73 311.82,575.09 312.55,565.64
             313.27,556.18 318.36,552.00 318.36,552.00
             318.36,552.00 306.73,566.73 306.73,566.73" />
  <path id="w4"
        class="word"
        d="M 263.00,565.00
           C 261.00,568.00 263.00,568.00 264.00,568.00
             265.00,567.00 266.00,565.00 263.00,565.00 Z
           M 259.64,581.82
           C 259.64,581.82 297.64,582.36 297.64,582.36
             297.64,582.36 254.36,571.45 254.36,571.45
             254.36,571.45 262.18,567.27 262.18,567.27M 262.36,565.27
           C 262.36,565.27 232.00,551.27 232.00,551.27
             232.00,551.27 246.91,553.27 260.91,548.55
             274.91,543.82 275.27,539.45 275.27,539.45
             275.27,539.45 266.18,540.73 261.64,530.91
             257.09,521.09 262.73,517.09 262.73,517.09" />
  <path id="w3"
        class="word"
        d="M 223.67,600.67
           C 223.67,600.67 233.67,609.00 233.67,609.00
             233.67,609.00 233.67,592.33 233.67,592.33
             233.67,592.33 242.33,603.00 242.33,603.00M 244.33,602.00
           C 244.33,602.00 244.33,590.00 244.33,590.00
             244.33,590.00 244.55,596.91 247.64,599.64
             250.73,602.36 255.27,603.45 255.27,603.45
             255.27,603.45 254.18,599.45 255.09,597.09
             256.00,594.73 259.45,591.82 259.45,591.82M 243.00,602.00
           C 243.00,602.00 242.00,603.00 242.00,603.00
             242.00,603.00 242.00,605.00 242.00,605.00
             242.00,605.00 243.00,606.00 243.00,606.00
             243.00,606.00 245.00,606.00 245.00,606.00
             245.00,606.00 246.00,605.00 246.00,605.00
             246.00,605.00 246.00,603.00 246.00,603.00
             246.00,603.00 245.00,602.00 245.00,602.00
             245.00,602.00 243.00,602.00 243.00,602.00 Z" />
  <path id="w2"
        class="word"
        d="M 263.00,602.00
           C 263.00,602.00 262.00,603.00 262.00,603.00
             262.00,603.00 262.00,605.00 262.00,605.00
             262.00,605.00 263.00,606.00 263.00,606.00
             263.00,606.00 265.00,606.00 265.00,606.00
             265.00,606.00 266.00,605.00 266.00,605.00
             266.00,605.00 266.00,603.00 266.00,603.00
             266.00,603.00 265.00,602.00 265.00,602.00
             265.00,602.00 263.00,602.00 263.00,602.00 Z
           M 273.33,621.00
           C 273.33,621.00 254.67,618.00 254.67,618.00
             254.67,618.00 274.33,609.33 274.33,609.33
             274.33,609.33 266.00,605.33 266.00,605.33M 259.67,581.67
           C 259.67,581.67 259.33,585.33 261.33,588.33
             263.33,591.33 267.67,595.33 267.67,595.33
             267.67,595.33 263.67,597.67 261.33,597.33
             259.00,597.00 251.33,594.33 251.33,594.33
             251.33,594.33 262.67,603.00 262.67,603.00" />
</g>
</svg>
